<?xml version="1.0" standalone="no"?>
<!DOCTYPE svg PUBLIC "-//W3C//DTD SVG 1.1//EN" "http://www.w3.org/Graphics/SVG/1.1/DTD/svg11.dtd">
<svg version="1.1" width="1200" height="518" onload="init(evt)" viewBox="0 0 1200 518" xmlns="http://www.w3.org/2000/svg" xmlns:xlink="http://www.w3.org/1999/xlink">
<!-- Flame graph stack visualization. See https://github.com/brendangregg/FlameGraph for latest version, and http://www.brendangregg.com/flamegraphs.html for examples. -->
<!-- NOTES:  -->
<defs>
	<linearGradient id="background" y1="0" y2="1" x1="0" x2="0" >
		<stop stop-color="#eeeeee" offset="5%" />
		<stop stop-color="#eeeeb0" offset="95%" />
	</linearGradient>
</defs>
<style type="text/css">
	text { font-family:Verdana; font-size:12px; fill:rgb(0,0,0); }
	#search, #ignorecase { opacity:0.1; cursor:pointer; }
	#search:hover, #search.show, #ignorecase:hover, #ignorecase.show { opacity:1; }
	#subtitle { text-anchor:middle; font-color:rgb(160,160,160); }
	#title { text-anchor:middle; font-size:17px}
	#unzoom { cursor:pointer; }
	#frames > *:hover { stroke:black; stroke-width:0.5; cursor:pointer; }
	.hide { display:none; }
	.parent { opacity:0.5; }
</style>
<script type="text/ecmascript">
<![CDATA[
	"use strict";
	var details, searchbtn, unzoombtn, matchedtxt, svg, searching, currentSearchTerm, ignorecase, ignorecaseBtn;
	function init(evt) {
		details = document.getElementById("details").firstChild;
		searchbtn = document.getElementById("search");
		ignorecaseBtn = document.getElementById("ignorecase");
		unzoombtn = document.getElementById("unzoom");
		matchedtxt = document.getElementById("matched");
		svg = document.getElementsByTagName("svg")[0];
		searching = 0;
		currentSearchTerm = null;

		// use GET parameters to restore a flamegraphs state.
		var params = get_params();
		if (params.x && params.y)
			zoom(find_group(document.querySelector('[x="' + params.x + '"][y="' + params.y + '"]')));
                if (params.s) search(params.s);
	}

	// event listeners
	window.addEventListener("click", function(e) {
		var target = find_group(e.target);
		if (target) {
			if (target.nodeName == "a") {
				if (e.ctrlKey === false) return;
				e.preventDefault();
			}
			if (target.classList.contains("parent")) unzoom(true);
			zoom(target);
			if (!document.querySelector('.parent')) {
				// we have basically done a clearzoom so clear the url
				var params = get_params();
				if (params.x) delete params.x;
				if (params.y) delete params.y;
				history.replaceState(null, null, parse_params(params));
				unzoombtn.classList.add("hide");
				return;
			}

			// set parameters for zoom state
			var el = target.querySelector("rect");
			if (el && el.attributes && el.attributes.y && el.attributes._orig_x) {
				var params = get_params()
				params.x = el.attributes._orig_x.value;
				params.y = el.attributes.y.value;
				history.replaceState(null, null, parse_params(params));
			}
		}
		else if (e.target.id == "unzoom") clearzoom();
		else if (e.target.id == "search") search_prompt();
		else if (e.target.id == "ignorecase") toggle_ignorecase();
	}, false)

	// mouse-over for info
	// show
	window.addEventListener("mouseover", function(e) {
		var target = find_group(e.target);
		if (target) details.nodeValue = "Function: " + g_to_text(target);
	}, false)

	// clear
	window.addEventListener("mouseout", function(e) {
		var target = find_group(e.target);
		if (target) details.nodeValue = ' ';
	}, false)

	// ctrl-F for search
	// ctrl-I to toggle case-sensitive search
	window.addEventListener("keydown",function (e) {
		if (e.keyCode === 114 || (e.ctrlKey && e.keyCode === 70)) {
			e.preventDefault();
			search_prompt();
		}
		else if (e.ctrlKey && e.keyCode === 73) {
			e.preventDefault();
			toggle_ignorecase();
		}
	}, false)

	// functions
	function get_params() {
		var params = {};
		var paramsarr = window.location.search.substr(1).split('&');
		for (var i = 0; i < paramsarr.length; ++i) {
			var tmp = paramsarr[i].split("=");
			if (!tmp[0] || !tmp[1]) continue;
			params[tmp[0]]  = decodeURIComponent(tmp[1]);
		}
		return params;
	}
	function parse_params(params) {
		var uri = "?";
		for (var key in params) {
			uri += key + '=' + encodeURIComponent(params[key]) + '&';
		}
		if (uri.slice(-1) == "&")
			uri = uri.substring(0, uri.length - 1);
		if (uri == '?')
			uri = window.location.href.split('?')[0];
		return uri;
	}
	function find_child(node, selector) {
		var children = node.querySelectorAll(selector);
		if (children.length) return children[0];
	}
	function find_group(node) {
		var parent = node.parentElement;
		if (!parent) return;
		if (parent.id == "frames") return node;
		return find_group(parent);
	}
	function orig_save(e, attr, val) {
		if (e.attributes["_orig_" + attr] != undefined) return;
		if (e.attributes[attr] == undefined) return;
		if (val == undefined) val = e.attributes[attr].value;
		e.setAttribute("_orig_" + attr, val);
	}
	function orig_load(e, attr) {
		if (e.attributes["_orig_"+attr] == undefined) return;
		e.attributes[attr].value = e.attributes["_orig_" + attr].value;
		e.removeAttribute("_orig_"+attr);
	}
	function g_to_text(e) {
		var text = find_child(e, "title").firstChild.nodeValue;
		return (text)
	}
	function g_to_func(e) {
		var func = g_to_text(e);
		// if there's any manipulation we want to do to the function
		// name before it's searched, do it here before returning.
		return (func);
	}
	function update_text(e) {
		var r = find_child(e, "rect");
		var t = find_child(e, "text");
		var w = parseFloat(r.attributes.width.value) -3;
		var txt = find_child(e, "title").textContent.replace(/\([^(]*\)$/,"");
		t.attributes.x.value = parseFloat(r.attributes.x.value) + 3;

		// Smaller than this size won't fit anything
		if (w < 2 * 12 * 0.59) {
			t.textContent = "";
			return;
		}

		t.textContent = txt;
		var sl = t.getSubStringLength(0, txt.length);
		// check if only whitespace or if we can fit the entire string into width w
		if (/^ *$/.test(txt) || sl < w)
			return;

		// this isn't perfect, but gives a good starting point
		// and avoids calling getSubStringLength too often
		var start = Math.floor((w/sl) * txt.length);
		for (var x = start; x > 0; x = x-2) {
			if (t.getSubStringLength(0, x + 2) <= w) {
				t.textContent = txt.substring(0, x) + "..";
				return;
			}
		}
		t.textContent = "";
	}

	// zoom
	function zoom_reset(e) {
		if (e.attributes != undefined) {
			orig_load(e, "x");
			orig_load(e, "width");
		}
		if (e.childNodes == undefined) return;
		for (var i = 0, c = e.childNodes; i < c.length; i++) {
			zoom_reset(c[i]);
		}
	}
	function zoom_child(e, x, ratio) {
		if (e.attributes != undefined) {
			if (e.attributes.x != undefined) {
				orig_save(e, "x");
				e.attributes.x.value = (parseFloat(e.attributes.x.value) - x - 10) * ratio + 10;
				if (e.tagName == "text")
					e.attributes.x.value = find_child(e.parentNode, "rect[x]").attributes.x.value + 3;
			}
			if (e.attributes.width != undefined) {
				orig_save(e, "width");
				e.attributes.width.value = parseFloat(e.attributes.width.value) * ratio;
			}
		}

		if (e.childNodes == undefined) return;
		for (var i = 0, c = e.childNodes; i < c.length; i++) {
			zoom_child(c[i], x - 10, ratio);
		}
	}
	function zoom_parent(e) {
		if (e.attributes) {
			if (e.attributes.x != undefined) {
				orig_save(e, "x");
				e.attributes.x.value = 10;
			}
			if (e.attributes.width != undefined) {
				orig_save(e, "width");
				e.attributes.width.value = parseInt(svg.width.baseVal.value) - (10 * 2);
			}
		}
		if (e.childNodes == undefined) return;
		for (var i = 0, c = e.childNodes; i < c.length; i++) {
			zoom_parent(c[i]);
		}
	}
	function zoom(node) {
		var attr = find_child(node, "rect").attributes;
		var width = parseFloat(attr.width.value);
		var xmin = parseFloat(attr.x.value);
		var xmax = parseFloat(xmin + width);
		var ymin = parseFloat(attr.y.value);
		var ratio = (svg.width.baseVal.value - 2 * 10) / width;

		// XXX: Workaround for JavaScript float issues (fix me)
		var fudge = 0.0001;

		unzoombtn.classList.remove("hide");

		var el = document.getElementById("frames").children;
		for (var i = 0; i < el.length; i++) {
			var e = el[i];
			var a = find_child(e, "rect").attributes;
			var ex = parseFloat(a.x.value);
			var ew = parseFloat(a.width.value);
			var upstack;
			// Is it an ancestor
			if (0 == 0) {
				upstack = parseFloat(a.y.value) > ymin;
			} else {
				upstack = parseFloat(a.y.value) < ymin;
			}
			if (upstack) {
				// Direct ancestor
				if (ex <= xmin && (ex+ew+fudge) >= xmax) {
					e.classList.add("parent");
					zoom_parent(e);
					update_text(e);
				}
				// not in current path
				else
					e.classList.add("hide");
			}
			// Children maybe
			else {
				// no common path
				if (ex < xmin || ex + fudge >= xmax) {
					e.classList.add("hide");
				}
				else {
					zoom_child(e, xmin, ratio);
					update_text(e);
				}
			}
		}
		search();
	}
	function unzoom(dont_update_text) {
		unzoombtn.classList.add("hide");
		var el = document.getElementById("frames").children;
		for(var i = 0; i < el.length; i++) {
			el[i].classList.remove("parent");
			el[i].classList.remove("hide");
			zoom_reset(el[i]);
			if(!dont_update_text) update_text(el[i]);
		}
		search();
	}
	function clearzoom() {
		unzoom();

		// remove zoom state
		var params = get_params();
		if (params.x) delete params.x;
		if (params.y) delete params.y;
		history.replaceState(null, null, parse_params(params));
	}

	// search
	function toggle_ignorecase() {
		ignorecase = !ignorecase;
		if (ignorecase) {
			ignorecaseBtn.classList.add("show");
		} else {
			ignorecaseBtn.classList.remove("show");
		}
		reset_search();
		search();
	}
	function reset_search() {
		var el = document.querySelectorAll("#frames rect");
		for (var i = 0; i < el.length; i++) {
			orig_load(el[i], "fill")
		}
		var params = get_params();
		delete params.s;
		history.replaceState(null, null, parse_params(params));
	}
	function search_prompt() {
		if (!searching) {
			var term = prompt("Enter a search term (regexp " +
			    "allowed, eg: ^ext4_)"
			    + (ignorecase ? ", ignoring case" : "")
			    + "\nPress Ctrl-i to toggle case sensitivity", "");
			if (term != null) search(term);
		} else {
			reset_search();
			searching = 0;
			currentSearchTerm = null;
			searchbtn.classList.remove("show");
			searchbtn.firstChild.nodeValue = "Search"
			matchedtxt.classList.add("hide");
			matchedtxt.firstChild.nodeValue = ""
		}
	}
	function search(term) {
		if (term) currentSearchTerm = term;

		var re = new RegExp(currentSearchTerm, ignorecase ? 'i' : '');
		var el = document.getElementById("frames").children;
		var matches = new Object();
		var maxwidth = 0;
		for (var i = 0; i < el.length; i++) {
			var e = el[i];
			var func = g_to_func(e);
			var rect = find_child(e, "rect");
			if (func == null || rect == null)
				continue;

			// Save max width. Only works as we have a root frame
			var w = parseFloat(rect.attributes.width.value);
			if (w > maxwidth)
				maxwidth = w;

			if (func.match(re)) {
				// highlight
				var x = parseFloat(rect.attributes.x.value);
				orig_save(rect, "fill");
				rect.attributes.fill.value = "rgb(230,0,230)";

				// remember matches
				if (matches[x] == undefined) {
					matches[x] = w;
				} else {
					if (w > matches[x]) {
						// overwrite with parent
						matches[x] = w;
					}
				}
				searching = 1;
			}
		}
		if (!searching)
			return;
		var params = get_params();
		params.s = currentSearchTerm;
		history.replaceState(null, null, parse_params(params));

		searchbtn.classList.add("show");
		searchbtn.firstChild.nodeValue = "Reset Search";

		// calculate percent matched, excluding vertical overlap
		var count = 0;
		var lastx = -1;
		var lastw = 0;
		var keys = Array();
		for (k in matches) {
			if (matches.hasOwnProperty(k))
				keys.push(k);
		}
		// sort the matched frames by their x location
		// ascending, then width descending
		keys.sort(function(a, b){
			return a - b;
		});
		// Step through frames saving only the biggest bottom-up frames
		// thanks to the sort order. This relies on the tree property
		// where children are always smaller than their parents.
		var fudge = 0.0001;	// JavaScript floating point
		for (var k in keys) {
			var x = parseFloat(keys[k]);
			var w = matches[keys[k]];
			if (x >= lastx + lastw - fudge) {
				count += w;
				lastx = x;
				lastw = w;
			}
		}
		// display matched percent
		matchedtxt.classList.remove("hide");
		var pct = 100 * count / maxwidth;
		if (pct != 100) pct = pct.toFixed(1)
		matchedtxt.firstChild.nodeValue = "Matched: " + pct + "%";
	}
]]>
</script>
<rect x="0.0" y="0" width="1200.0" height="518.0" fill="url(#background)"  />
<text id="title" x="600.00" y="24" >Off-CPU Time aligned</text>
<text id="details" x="10.00" y="501" > </text>
<text id="unzoom" x="10.00" y="24" class="hide">Reset Zoom</text>
<text id="search" x="1090.00" y="24" >Search</text>
<text id="ignorecase" x="1174.00" y="24" >ic</text>
<text id="matched" x="1090.00" y="501" > </text>
<g id="frames">
<g >
<title>vfs_write (300,584 us, 2.81%)</title><rect x="1156.9" y="357" width="33.1" height="15.0" fill="rgb(240,128,38)" rx="2" ry="2" />
<text  x="1159.88" y="367.5" >vf..</text>
</g>
<g >
<title>ext4_fc_commit (302,430 us, 2.82%)</title><rect x="10.0" y="341" width="33.3" height="15.0" fill="rgb(237,145,35)" rx="2" ry="2" />
<text  x="13.00" y="351.5" >ex..</text>
</g>
<g >
<title>finish_task_switch.isra.0 (5,260 us, 0.05%)</title><rect x="432.6" y="213" width="0.6" height="15.0" fill="rgb(238,177,36)" rx="2" ry="2" />
<text  x="435.65" y="223.5" ></text>
</g>
<g >
<title>ext4_mb_init_cache (38,224 us, 0.36%)</title><rect x="433.3" y="165" width="4.2" height="15.0" fill="rgb(245,145,44)" rx="2" ry="2" />
<text  x="436.27" y="175.5" ></text>
</g>
<g >
<title>io_schedule (3,532,784 us, 32.99%)</title><rect x="43.3" y="261" width="389.3" height="15.0" fill="rgb(237,149,35)" rx="2" ry="2" />
<text  x="46.33" y="271.5" >io_schedule</text>
</g>
<g >
<title>ext4_mb_find_by_goal (38,224 us, 0.36%)</title><rect x="433.3" y="197" width="4.2" height="15.0" fill="rgb(229,145,26)" rx="2" ry="2" />
<text  x="436.27" y="207.5" ></text>
</g>
<g >
<title>entry_SYSCALL_64_after_hwframe (10,707,655 us, 100.00%)</title><rect x="10.0" y="437" width="1180.0" height="15.0" fill="rgb(241,196,40)" rx="2" ry="2" />
<text  x="13.00" y="447.5" >entry_SYSCALL_64_after_hwframe</text>
</g>
<g >
<title>schedule (39,229 us, 0.37%)</title><rect x="437.5" y="69" width="4.3" height="15.0" fill="rgb(237,164,35)" rx="2" ry="2" />
<text  x="440.48" y="79.5" ></text>
</g>
<g >
<title>__ext4_journal_get_write_access (78,001 us, 0.73%)</title><rect x="1181.4" y="181" width="8.6" height="15.0" fill="rgb(237,138,35)" rx="2" ry="2" />
<text  x="1184.40" y="191.5" ></text>
</g>
<g >
<title>bit_wait_io (39,229 us, 0.37%)</title><rect x="437.5" y="101" width="4.3" height="15.0" fill="rgb(238,109,37)" rx="2" ry="2" />
<text  x="440.48" y="111.5" ></text>
</g>
<g >
<title>__wait_on_buffer (38,224 us, 0.36%)</title><rect x="433.3" y="133" width="4.2" height="15.0" fill="rgb(241,119,40)" rx="2" ry="2" />
<text  x="436.27" y="143.5" ></text>
</g>
<g >
<title>ext4_da_write_end (91,154 us, 0.85%)</title><rect x="1180.0" y="277" width="10.0" height="15.0" fill="rgb(251,145,51)" rx="2" ry="2" />
<text  x="1182.95" y="287.5" ></text>
</g>
<g >
<title>ext4_mb_load_buddy_gfp (39,229 us, 0.37%)</title><rect x="437.5" y="197" width="4.3" height="15.0" fill="rgb(243,145,42)" rx="2" ry="2" />
<text  x="440.48" y="207.5" ></text>
</g>
<g >
<title>schedule_preempt_disabled (208,750 us, 1.95%)</title><rect x="1156.9" y="181" width="23.1" height="15.0" fill="rgb(252,164,52)" rx="2" ry="2" />
<text  x="1159.95" y="191.5" >s..</text>
</g>
<g >
<title>wait_on_page_bit_common (3,532,784 us, 32.99%)</title><rect x="43.3" y="277" width="389.3" height="15.0" fill="rgb(253,83,53)" rx="2" ry="2" />
<text  x="46.33" y="287.5" >wait_on_page_bit_common</text>
</g>
<g >
<title>finish_task_switch.isra.0 (13,092 us, 0.12%)</title><rect x="1180.0" y="117" width="1.4" height="15.0" fill="rgb(238,177,36)" rx="2" ry="2" />
<text  x="1182.96" y="127.5" ></text>
</g>
<g >
<title>ext4_buffered_write_iter (300,579 us, 2.81%)</title><rect x="1156.9" y="309" width="33.1" height="15.0" fill="rgb(240,145,38)" rx="2" ry="2" />
<text  x="1159.88" y="319.5" >ex..</text>
</g>
<g >
<title>finish_task_switch.isra.0 (6,488,760 us, 60.60%)</title><rect x="441.8" y="309" width="715.1" height="15.0" fill="rgb(238,177,36)" rx="2" ry="2" />
<text  x="444.80" y="319.5" >finish_task_switch.isra.0</text>
</g>
<g >
<title>generic_write_end (91,154 us, 0.85%)</title><rect x="1180.0" y="261" width="10.0" height="15.0" fill="rgb(251,189,51)" rx="2" ry="2" />
<text  x="1182.95" y="271.5" ></text>
</g>
<g >
<title>jbd2_log_wait_commit (302,430 us, 2.82%)</title><rect x="10.0" y="309" width="33.3" height="15.0" fill="rgb(237,118,35)" rx="2" ry="2" />
<text  x="13.00" y="319.5" >jb..</text>
</g>
<g >
<title>io_schedule (38,224 us, 0.36%)</title><rect x="433.3" y="69" width="4.2" height="15.0" fill="rgb(237,149,35)" rx="2" ry="2" />
<text  x="436.27" y="79.5" ></text>
</g>
<g >
<title>__ext4_mark_inode_dirty (78,054 us, 0.73%)</title><rect x="1181.4" y="213" width="8.6" height="15.0" fill="rgb(242,138,41)" rx="2" ry="2" />
<text  x="1184.40" y="223.5" ></text>
</g>
<g >
<title>down_write (5,260 us, 0.05%)</title><rect x="432.6" y="261" width="0.6" height="15.0" fill="rgb(240,189,38)" rx="2" ry="2" />
<text  x="435.65" y="271.5" ></text>
</g>
<g >
<title>finish_task_switch.isra.0 (302,430 us, 2.82%)</title><rect x="10.0" y="277" width="33.3" height="15.0" fill="rgb(238,177,36)" rx="2" ry="2" />
<text  x="13.00" y="287.5" >fi..</text>
</g>
<g >
<title>ext4_mb_init_cache (39,229 us, 0.37%)</title><rect x="437.5" y="181" width="4.3" height="15.0" fill="rgb(245,145,44)" rx="2" ry="2" />
<text  x="440.48" y="191.5" ></text>
</g>
<g >
<title>rwsem_down_read_slowpath (208,750 us, 1.95%)</title><rect x="1156.9" y="197" width="23.1" height="15.0" fill="rgb(240,130,39)" rx="2" ry="2" />
<text  x="1159.95" y="207.5" >r..</text>
</g>
<g >
<title>vfs_fsync_range (3,918,311 us, 36.59%)</title><rect x="10.0" y="373" width="431.8" height="15.0" fill="rgb(247,128,46)" rx="2" ry="2" />
<text  x="13.00" y="383.5" >vfs_fsync_range</text>
</g>
<g >
<title>finish_task_switch.isra.0 (38,224 us, 0.36%)</title><rect x="433.3" y="37" width="4.2" height="15.0" fill="rgb(238,177,36)" rx="2" ry="2" />
<text  x="436.27" y="47.5" ></text>
</g>
<g >
<title>futex_wait_queue_me (6,488,760 us, 60.60%)</title><rect x="441.8" y="341" width="715.1" height="15.0" fill="rgb(234,152,32)" rx="2" ry="2" />
<text  x="444.80" y="351.5" >futex_wait_queue_me</text>
</g>
<g >
<title>__mark_inode_dirty (91,154 us, 0.85%)</title><rect x="1180.0" y="245" width="10.0" height="15.0" fill="rgb(242,151,41)" rx="2" ry="2" />
<text  x="1182.95" y="255.5" ></text>
</g>
<g >
<title>ext4_map_blocks (77,814 us, 0.73%)</title><rect x="433.2" y="261" width="8.6" height="15.0" fill="rgb(235,145,33)" rx="2" ry="2" />
<text  x="436.23" y="271.5" ></text>
</g>
<g >
<title>ext4_mb_load_buddy_gfp (38,224 us, 0.36%)</title><rect x="433.3" y="181" width="4.2" height="15.0" fill="rgb(243,145,42)" rx="2" ry="2" />
<text  x="436.27" y="191.5" ></text>
</g>
<g >
<title>schedule (208,750 us, 1.95%)</title><rect x="1156.9" y="165" width="23.1" height="15.0" fill="rgb(237,164,35)" rx="2" ry="2" />
<text  x="1159.95" y="175.5" >s..</text>
</g>
<g >
<title>bit_wait_io (78,001 us, 0.73%)</title><rect x="1181.4" y="101" width="8.6" height="15.0" fill="rgb(238,109,37)" rx="2" ry="2" />
<text  x="1184.40" y="111.5" ></text>
</g>
<g >
<title>wait_transaction_locked (13,092 us, 0.12%)</title><rect x="1180.0" y="149" width="1.4" height="15.0" fill="rgb(245,83,44)" rx="2" ry="2" />
<text  x="1182.96" y="159.5" ></text>
</g>
<g >
<title>__wait_on_buffer (39,229 us, 0.37%)</title><rect x="437.5" y="149" width="4.3" height="15.0" fill="rgb(241,119,40)" rx="2" ry="2" />
<text  x="440.48" y="159.5" ></text>
</g>
<g >
<title>do_get_write_access (78,001 us, 0.73%)</title><rect x="1181.4" y="149" width="8.6" height="15.0" fill="rgb(237,189,35)" rx="2" ry="2" />
<text  x="1184.40" y="159.5" ></text>
</g>
<g >
<title>down_read (208,750 us, 1.95%)</title><rect x="1156.9" y="213" width="23.1" height="15.0" fill="rgb(241,189,40)" rx="2" ry="2" />
<text  x="1159.95" y="223.5" >d..</text>
</g>
<g >
<title>ext4_file_write_iter (300,579 us, 2.81%)</title><rect x="1156.9" y="325" width="33.1" height="15.0" fill="rgb(240,145,38)" rx="2" ry="2" />
<text  x="1159.88" y="335.5" >ex..</text>
</g>
<g >
<title>ext4_reserve_inode_write (78,033 us, 0.73%)</title><rect x="1181.4" y="197" width="8.6" height="15.0" fill="rgb(240,145,38)" rx="2" ry="2" />
<text  x="1184.40" y="207.5" ></text>
</g>
<g >
<title>rwsem_down_write_slowpath (5,260 us, 0.05%)</title><rect x="432.6" y="245" width="0.6" height="15.0" fill="rgb(240,130,39)" rx="2" ry="2" />
<text  x="435.65" y="255.5" ></text>
</g>
<g >
<title>wait_on_page_writeback (3,532,784 us, 32.99%)</title><rect x="43.3" y="309" width="389.3" height="15.0" fill="rgb(242,83,40)" rx="2" ry="2" />
<text  x="46.33" y="319.5" >wait_on_page_writeback</text>
</g>
<g >
<title>ksys_write (300,584 us, 2.81%)</title><rect x="1156.9" y="373" width="33.1" height="15.0" fill="rgb(240,145,38)" rx="2" ry="2" />
<text  x="1159.88" y="383.5" >ks..</text>
</g>
<g >
<title>ext4_mb_new_blocks (77,708 us, 0.73%)</title><rect x="433.2" y="229" width="8.6" height="15.0" fill="rgb(235,145,33)" rx="2" ry="2" />
<text  x="436.24" y="239.5" ></text>
</g>
<g >
<title>ext4_wait_block_bitmap (38,224 us, 0.36%)</title><rect x="433.3" y="149" width="4.2" height="15.0" fill="rgb(240,145,39)" rx="2" ry="2" />
<text  x="436.27" y="159.5" ></text>
</g>
<g >
<title>out_of_line_wait_on_bit (39,229 us, 0.37%)</title><rect x="437.5" y="133" width="4.3" height="15.0" fill="rgb(236,160,34)" rx="2" ry="2" />
<text  x="440.48" y="143.5" ></text>
</g>
<g >
<title>do_futex (6,488,760 us, 60.60%)</title><rect x="441.8" y="373" width="715.1" height="15.0" fill="rgb(247,189,46)" rx="2" ry="2" />
<text  x="444.80" y="383.5" >do_futex</text>
</g>
<g >
<title>ext4_da_write_begin (208,799 us, 1.95%)</title><rect x="1156.9" y="277" width="23.1" height="15.0" fill="rgb(243,145,42)" rx="2" ry="2" />
<text  x="1159.94" y="287.5" >e..</text>
</g>
<g >
<title>schedule (5,260 us, 0.05%)</title><rect x="432.6" y="229" width="0.6" height="15.0" fill="rgb(237,164,35)" rx="2" ry="2" />
<text  x="435.65" y="239.5" ></text>
</g>
<g >
<title>ext4_wait_block_bitmap (39,229 us, 0.37%)</title><rect x="437.5" y="165" width="4.3" height="15.0" fill="rgb(240,145,39)" rx="2" ry="2" />
<text  x="440.48" y="175.5" ></text>
</g>
<g >
<title>schedule (3,532,784 us, 32.99%)</title><rect x="43.3" y="245" width="389.3" height="15.0" fill="rgb(237,164,35)" rx="2" ry="2" />
<text  x="46.33" y="255.5" >schedule</text>
</g>
<g >
<title>filemap_fdatawrite_wbc (83,088 us, 0.78%)</title><rect x="432.6" y="325" width="9.2" height="15.0" fill="rgb(220,183,17)" rx="2" ry="2" />
<text  x="435.65" y="335.5" ></text>
</g>
<g >
<title>ext4_da_get_block_prep (208,750 us, 1.95%)</title><rect x="1156.9" y="245" width="23.1" height="15.0" fill="rgb(245,145,44)" rx="2" ry="2" />
<text  x="1159.95" y="255.5" >e..</text>
</g>
<g >
<title>ext4_mb_regular_allocator (77,453 us, 0.72%)</title><rect x="433.3" y="213" width="8.5" height="15.0" fill="rgb(241,145,39)" rx="2" ry="2" />
<text  x="436.27" y="223.5" ></text>
</g>
<g >
<title>finish_task_switch.isra.0 (78,001 us, 0.73%)</title><rect x="1181.4" y="53" width="8.6" height="15.0" fill="rgb(238,177,36)" rx="2" ry="2" />
<text  x="1184.40" y="63.5" ></text>
</g>
<g >
<title>ext4_ext_map_blocks (77,708 us, 0.73%)</title><rect x="433.2" y="245" width="8.6" height="15.0" fill="rgb(235,145,33)" rx="2" ry="2" />
<text  x="436.24" y="255.5" ></text>
</g>
<g >
<title>__ext4_journal_start_sb (13,100 us, 0.12%)</title><rect x="1180.0" y="213" width="1.4" height="15.0" fill="rgb(227,138,25)" rx="2" ry="2" />
<text  x="1182.95" y="223.5" ></text>
</g>
<g >
<title>ext4_block_write_begin (208,784 us, 1.95%)</title><rect x="1156.9" y="261" width="23.1" height="15.0" fill="rgb(243,145,42)" rx="2" ry="2" />
<text  x="1159.94" y="271.5" >e..</text>
</g>
<g >
<title>finish_task_switch.isra.0 (3,532,784 us, 32.99%)</title><rect x="43.3" y="229" width="389.3" height="15.0" fill="rgb(238,177,36)" rx="2" ry="2" />
<text  x="46.33" y="239.5" >finish_task_switch.isra.0</text>
</g>
<g >
<title>add_transaction_credits (13,092 us, 0.12%)</title><rect x="1180.0" y="165" width="1.4" height="15.0" fill="rgb(233,156,31)" rx="2" ry="2" />
<text  x="1182.96" y="175.5" ></text>
</g>
<g >
<title>io_schedule (78,001 us, 0.73%)</title><rect x="1181.4" y="85" width="8.6" height="15.0" fill="rgb(237,149,35)" rx="2" ry="2" />
<text  x="1184.40" y="95.5" ></text>
</g>
<g >
<title>do_syscall_64 (10,707,655 us, 100.00%)</title><rect x="10.0" y="421" width="1180.0" height="15.0" fill="rgb(232,189,30)" rx="2" ry="2" />
<text  x="13.00" y="431.5" >do_syscall_64</text>
</g>
<g >
<title>schedule (13,092 us, 0.12%)</title><rect x="1180.0" y="133" width="1.4" height="15.0" fill="rgb(237,164,35)" rx="2" ry="2" />
<text  x="1182.96" y="143.5" ></text>
</g>
<g >
<title>__wait_on_bit (38,224 us, 0.36%)</title><rect x="433.3" y="101" width="4.2" height="15.0" fill="rgb(236,119,34)" rx="2" ry="2" />
<text  x="436.27" y="111.5" ></text>
</g>
<g >
<title>jbd2_complete_transaction (302,430 us, 2.82%)</title><rect x="10.0" y="325" width="33.3" height="15.0" fill="rgb(247,118,46)" rx="2" ry="2" />
<text  x="13.00" y="335.5" >jb..</text>
</g>
<g >
<title>__x64_sys_write (300,584 us, 2.81%)</title><rect x="1156.9" y="389" width="33.1" height="15.0" fill="rgb(240,154,38)" rx="2" ry="2" />
<text  x="1159.88" y="399.5" >__..</text>
</g>
<g >
<title>file_write_and_wait_range (3,615,872 us, 33.77%)</title><rect x="43.3" y="341" width="398.5" height="15.0" fill="rgb(247,183,46)" rx="2" ry="2" />
<text  x="46.33" y="351.5" >file_write_and_wait_range</text>
</g>
<g >
<title>schedule (6,488,760 us, 60.60%)</title><rect x="441.8" y="325" width="715.1" height="15.0" fill="rgb(237,164,35)" rx="2" ry="2" />
<text  x="444.80" y="335.5" >schedule</text>
</g>
<g >
<title>ext4_dirty_inode (91,154 us, 0.85%)</title><rect x="1180.0" y="229" width="10.0" height="15.0" fill="rgb(250,145,49)" rx="2" ry="2" />
<text  x="1182.95" y="239.5" ></text>
</g>
<g >
<title>out_of_line_wait_on_bit (78,001 us, 0.73%)</title><rect x="1181.4" y="133" width="8.6" height="15.0" fill="rgb(236,160,34)" rx="2" ry="2" />
<text  x="1184.40" y="143.5" ></text>
</g>
<g >
<title>ext4_sync_file (3,918,311 us, 36.59%)</title><rect x="10.0" y="357" width="431.8" height="15.0" fill="rgb(237,145,35)" rx="2" ry="2" />
<text  x="13.00" y="367.5" >ext4_sync_file</text>
</g>
<g >
<title>finish_task_switch.isra.0 (39,229 us, 0.37%)</title><rect x="437.5" y="53" width="4.3" height="15.0" fill="rgb(238,177,36)" rx="2" ry="2" />
<text  x="440.48" y="63.5" ></text>
</g>
<g >
<title>generic_perform_write (299,959 us, 2.80%)</title><rect x="1156.9" y="293" width="33.1" height="15.0" fill="rgb(240,189,38)" rx="2" ry="2" />
<text  x="1159.94" y="303.5" >ge..</text>
</g>
<g >
<title>schedule (78,001 us, 0.73%)</title><rect x="1181.4" y="69" width="8.6" height="15.0" fill="rgb(237,164,35)" rx="2" ry="2" />
<text  x="1184.40" y="79.5" ></text>
</g>
<g >
<title>io_schedule (39,229 us, 0.37%)</title><rect x="437.5" y="85" width="4.3" height="15.0" fill="rgb(237,149,35)" rx="2" ry="2" />
<text  x="440.48" y="95.5" ></text>
</g>
<g >
<title>start_this_handle (13,092 us, 0.12%)</title><rect x="1180.0" y="181" width="1.4" height="15.0" fill="rgb(240,156,39)" rx="2" ry="2" />
<text  x="1182.96" y="191.5" ></text>
</g>
<g >
<title>__wait_on_bit (78,001 us, 0.73%)</title><rect x="1181.4" y="117" width="8.6" height="15.0" fill="rgb(236,119,34)" rx="2" ry="2" />
<text  x="1184.40" y="127.5" ></text>
</g>
<g >
<title>stalls.o (10,707,655 us, 100.00%)</title><rect x="10.0" y="453" width="1180.0" height="15.0" fill="rgb(246,156,45)" rx="2" ry="2" />
<text  x="13.00" y="463.5" >stalls.o</text>
</g>
<g >
<title>new_sync_write (300,579 us, 2.81%)</title><rect x="1156.9" y="341" width="33.1" height="15.0" fill="rgb(240,184,38)" rx="2" ry="2" />
<text  x="1159.88" y="351.5" >ne..</text>
</g>
<g >
<title>ext4_da_map_blocks.constprop.0 (208,750 us, 1.95%)</title><rect x="1156.9" y="229" width="23.1" height="15.0" fill="rgb(236,145,34)" rx="2" ry="2" />
<text  x="1159.95" y="239.5" >e..</text>
</g>
<g >
<title>all (10,707,655 us, 100%)</title><rect x="10.0" y="469" width="1180.0" height="15.0" fill="rgb(255,230,55)" rx="2" ry="2" />
<text  x="13.00" y="479.5" ></text>
</g>
<g >
<title>jbd2_journal_get_write_access (78,001 us, 0.73%)</title><rect x="1181.4" y="165" width="8.6" height="15.0" fill="rgb(237,118,35)" rx="2" ry="2" />
<text  x="1184.40" y="175.5" ></text>
</g>
<g >
<title>wait_on_page_bit (3,532,784 us, 32.99%)</title><rect x="43.3" y="293" width="389.3" height="15.0" fill="rgb(236,83,34)" rx="2" ry="2" />
<text  x="46.33" y="303.5" >wait_on_page_bit</text>
</g>
<g >
<title>__x64_sys_futex (6,488,760 us, 60.60%)</title><rect x="441.8" y="389" width="715.1" height="15.0" fill="rgb(247,154,46)" rx="2" ry="2" />
<text  x="444.80" y="399.5" >__x64_sys_futex</text>
</g>
<g >
<title>__wait_on_bit (39,229 us, 0.37%)</title><rect x="437.5" y="117" width="4.3" height="15.0" fill="rgb(236,119,34)" rx="2" ry="2" />
<text  x="440.48" y="127.5" ></text>
</g>
<g >
<title>ext4_writepages (83,088 us, 0.78%)</title><rect x="432.6" y="293" width="9.2" height="15.0" fill="rgb(239,145,37)" rx="2" ry="2" />
<text  x="435.65" y="303.5" ></text>
</g>
<g >
<title>x64_sys_call (10,707,655 us, 100.00%)</title><rect x="10.0" y="405" width="1180.0" height="15.0" fill="rgb(230,166,28)" rx="2" ry="2" />
<text  x="13.00" y="415.5" >x64_sys_call</text>
</g>
<g >
<title>futex_wait (6,488,760 us, 60.60%)</title><rect x="441.8" y="357" width="715.1" height="15.0" fill="rgb(237,152,35)" rx="2" ry="2" />
<text  x="444.80" y="367.5" >futex_wait</text>
</g>
<g >
<title>schedule (302,430 us, 2.82%)</title><rect x="10.0" y="293" width="33.3" height="15.0" fill="rgb(237,164,35)" rx="2" ry="2" />
<text  x="13.00" y="303.5" >sc..</text>
</g>
<g >
<title>do_writepages (83,088 us, 0.78%)</title><rect x="432.6" y="309" width="9.2" height="15.0" fill="rgb(239,189,37)" rx="2" ry="2" />
<text  x="435.65" y="319.5" ></text>
</g>
<g >
<title>__filemap_fdatawait_range (3,532,784 us, 32.99%)</title><rect x="43.3" y="325" width="389.3" height="15.0" fill="rgb(247,135,46)" rx="2" ry="2" />
<text  x="46.33" y="335.5" >__filemap_fdatawait_range</text>
</g>
<g >
<title>__x64_sys_fsync (3,918,311 us, 36.59%)</title><rect x="10.0" y="389" width="431.8" height="15.0" fill="rgb(238,154,36)" rx="2" ry="2" />
<text  x="13.00" y="399.5" >__x64_sys_fsync</text>
</g>
<g >
<title>jbd2__journal_start (13,092 us, 0.12%)</title><rect x="1180.0" y="197" width="1.4" height="15.0" fill="rgb(239,118,37)" rx="2" ry="2" />
<text  x="1182.96" y="207.5" ></text>
</g>
<g >
<title>finish_task_switch.isra.0 (208,750 us, 1.95%)</title><rect x="1156.9" y="149" width="23.1" height="15.0" fill="rgb(238,177,36)" rx="2" ry="2" />
<text  x="1159.95" y="159.5" >f..</text>
</g>
<g >
<title>schedule (38,224 us, 0.36%)</title><rect x="433.3" y="53" width="4.2" height="15.0" fill="rgb(237,164,35)" rx="2" ry="2" />
<text  x="436.27" y="63.5" ></text>
</g>
<g >
<title>bit_wait_io (38,224 us, 0.36%)</title><rect x="433.3" y="85" width="4.2" height="15.0" fill="rgb(238,109,37)" rx="2" ry="2" />
<text  x="436.27" y="95.5" ></text>
</g>
<g >
<title>mpage_map_and_submit_extent (83,080 us, 0.78%)</title><rect x="432.6" y="277" width="9.2" height="15.0" fill="rgb(241,144,39)" rx="2" ry="2" />
<text  x="435.65" y="287.5" ></text>
</g>
<g >
<title>out_of_line_wait_on_bit (38,224 us, 0.36%)</title><rect x="433.3" y="117" width="4.2" height="15.0" fill="rgb(236,160,34)" rx="2" ry="2" />
<text  x="436.27" y="127.5" ></text>
</g>
</g>
</svg>
