<?xml version="1.0" standalone="no"?>
<!DOCTYPE svg PUBLIC "-//W3C//DTD SVG 1.1//EN" "http://www.w3.org/Graphics/SVG/1.1/DTD/svg11.dtd">
<svg version="1.1" width="1200" height="374" onload="init(evt)" viewBox="0 0 1200 374" xmlns="http://www.w3.org/2000/svg" xmlns:xlink="http://www.w3.org/1999/xlink">
<!-- Flame graph stack visualization. See https://github.com/brendangregg/FlameGraph for latest version, and http://www.brendangregg.com/flamegraphs.html for examples. -->
<!-- NOTES:  -->
<defs>
	<linearGradient id="background" y1="0" y2="1" x1="0" x2="0" >
		<stop stop-color="#f8f8f8" offset="5%" />
		<stop stop-color="#e8e8e8" offset="95%" />
	</linearGradient>
</defs>
<style type="text/css">
	text { font-family:Verdana; font-size:12px; fill:rgb(0,0,0); }
	#search, #ignorecase { opacity:0.1; cursor:pointer; }
	#search:hover, #search.show, #ignorecase:hover, #ignorecase.show { opacity:1; }
	#subtitle { text-anchor:middle; font-color:rgb(160,160,160); }
	#title { text-anchor:middle; font-size:17px}
	#unzoom { cursor:pointer; }
	#frames > *:hover { stroke:black; stroke-width:0.5; cursor:pointer; }
	.hide { display:none; }
	.parent { opacity:0.5; }
</style>
<script type="text/ecmascript">
<![CDATA[
	"use strict";
	var details, searchbtn, unzoombtn, matchedtxt, svg, searching, currentSearchTerm, ignorecase, ignorecaseBtn;
	function init(evt) {
		details = document.getElementById("details").firstChild;
		searchbtn = document.getElementById("search");
		ignorecaseBtn = document.getElementById("ignorecase");
		unzoombtn = document.getElementById("unzoom");
		matchedtxt = document.getElementById("matched");
		svg = document.getElementsByTagName("svg")[0];
		searching = 0;
		currentSearchTerm = null;

		// use GET parameters to restore a flamegraphs state.
		var params = get_params();
		if (params.x && params.y)
			zoom(find_group(document.querySelector('[x="' + params.x + '"][y="' + params.y + '"]')));
                if (params.s) search(params.s);
	}

	// event listeners
	window.addEventListener("click", function(e) {
		var target = find_group(e.target);
		if (target) {
			if (target.nodeName == "a") {
				if (e.ctrlKey === false) return;
				e.preventDefault();
			}
			if (target.classList.contains("parent")) unzoom(true);
			zoom(target);
			if (!document.querySelector('.parent')) {
				// we have basically done a clearzoom so clear the url
				var params = get_params();
				if (params.x) delete params.x;
				if (params.y) delete params.y;
				history.replaceState(null, null, parse_params(params));
				unzoombtn.classList.add("hide");
				return;
			}

			// set parameters for zoom state
			var el = target.querySelector("rect");
			if (el && el.attributes && el.attributes.y && el.attributes._orig_x) {
				var params = get_params()
				params.x = el.attributes._orig_x.value;
				params.y = el.attributes.y.value;
				history.replaceState(null, null, parse_params(params));
			}
		}
		else if (e.target.id == "unzoom") clearzoom();
		else if (e.target.id == "search") search_prompt();
		else if (e.target.id == "ignorecase") toggle_ignorecase();
	}, false)

	// mouse-over for info
	// show
	window.addEventListener("mouseover", function(e) {
		var target = find_group(e.target);
		if (target) details.nodeValue = "Function: " + g_to_text(target);
	}, false)

	// clear
	window.addEventListener("mouseout", function(e) {
		var target = find_group(e.target);
		if (target) details.nodeValue = ' ';
	}, false)

	// ctrl-F for search
	// ctrl-I to toggle case-sensitive search
	window.addEventListener("keydown",function (e) {
		if (e.keyCode === 114 || (e.ctrlKey && e.keyCode === 70)) {
			e.preventDefault();
			search_prompt();
		}
		else if (e.ctrlKey && e.keyCode === 73) {
			e.preventDefault();
			toggle_ignorecase();
		}
	}, false)

	// functions
	function get_params() {
		var params = {};
		var paramsarr = window.location.search.substr(1).split('&');
		for (var i = 0; i < paramsarr.length; ++i) {
			var tmp = paramsarr[i].split("=");
			if (!tmp[0] || !tmp[1]) continue;
			params[tmp[0]]  = decodeURIComponent(tmp[1]);
		}
		return params;
	}
	function parse_params(params) {
		var uri = "?";
		for (var key in params) {
			uri += key + '=' + encodeURIComponent(params[key]) + '&';
		}
		if (uri.slice(-1) == "&")
			uri = uri.substring(0, uri.length - 1);
		if (uri == '?')
			uri = window.location.href.split('?')[0];
		return uri;
	}
	function find_child(node, selector) {
		var children = node.querySelectorAll(selector);
		if (children.length) return children[0];
	}
	function find_group(node) {
		var parent = node.parentElement;
		if (!parent) return;
		if (parent.id == "frames") return node;
		return find_group(parent);
	}
	function orig_save(e, attr, val) {
		if (e.attributes["_orig_" + attr] != undefined) return;
		if (e.attributes[attr] == undefined) return;
		if (val == undefined) val = e.attributes[attr].value;
		e.setAttribute("_orig_" + attr, val);
	}
	function orig_load(e, attr) {
		if (e.attributes["_orig_"+attr] == undefined) return;
		e.attributes[attr].value = e.attributes["_orig_" + attr].value;
		e.removeAttribute("_orig_"+attr);
	}
	function g_to_text(e) {
		var text = find_child(e, "title").firstChild.nodeValue;
		return (text)
	}
	function g_to_func(e) {
		var func = g_to_text(e);
		// if there's any manipulation we want to do to the function
		// name before it's searched, do it here before returning.
		return (func);
	}
	function update_text(e) {
		var r = find_child(e, "rect");
		var t = find_child(e, "text");
		var w = parseFloat(r.attributes.width.value) -3;
		var txt = find_child(e, "title").textContent.replace(/\([^(]*\)$/,"");
		t.attributes.x.value = parseFloat(r.attributes.x.value) + 3;

		// Smaller than this size won't fit anything
		if (w < 2 * 12 * 0.59) {
			t.textContent = "";
			return;
		}

		t.textContent = txt;
		var sl = t.getSubStringLength(0, txt.length);
		// check if only whitespace or if we can fit the entire string into width w
		if (/^ *$/.test(txt) || sl < w)
			return;

		// this isn't perfect, but gives a good starting point
		// and avoids calling getSubStringLength too often
		var start = Math.floor((w/sl) * txt.length);
		for (var x = start; x > 0; x = x-2) {
			if (t.getSubStringLength(0, x + 2) <= w) {
				t.textContent = txt.substring(0, x) + "..";
				return;
			}
		}
		t.textContent = "";
	}

	// zoom
	function zoom_reset(e) {
		if (e.attributes != undefined) {
			orig_load(e, "x");
			orig_load(e, "width");
		}
		if (e.childNodes == undefined) return;
		for (var i = 0, c = e.childNodes; i < c.length; i++) {
			zoom_reset(c[i]);
		}
	}
	function zoom_child(e, x, ratio) {
		if (e.attributes != undefined) {
			if (e.attributes.x != undefined) {
				orig_save(e, "x");
				e.attributes.x.value = (parseFloat(e.attributes.x.value) - x - 10) * ratio + 10;
				if (e.tagName == "text")
					e.attributes.x.value = find_child(e.parentNode, "rect[x]").attributes.x.value + 3;
			}
			if (e.attributes.width != undefined) {
				orig_save(e, "width");
				e.attributes.width.value = parseFloat(e.attributes.width.value) * ratio;
			}
		}

		if (e.childNodes == undefined) return;
		for (var i = 0, c = e.childNodes; i < c.length; i++) {
			zoom_child(c[i], x - 10, ratio);
		}
	}
	function zoom_parent(e) {
		if (e.attributes) {
			if (e.attributes.x != undefined) {
				orig_save(e, "x");
				e.attributes.x.value = 10;
			}
			if (e.attributes.width != undefined) {
				orig_save(e, "width");
				e.attributes.width.value = parseInt(svg.width.baseVal.value) - (10 * 2);
			}
		}
		if (e.childNodes == undefined) return;
		for (var i = 0, c = e.childNodes; i < c.length; i++) {
			zoom_parent(c[i]);
		}
	}
	function zoom(node) {
		var attr = find_child(node, "rect").attributes;
		var width = parseFloat(attr.width.value);
		var xmin = parseFloat(attr.x.value);
		var xmax = parseFloat(xmin + width);
		var ymin = parseFloat(attr.y.value);
		var ratio = (svg.width.baseVal.value - 2 * 10) / width;

		// XXX: Workaround for JavaScript float issues (fix me)
		var fudge = 0.0001;

		unzoombtn.classList.remove("hide");

		var el = document.getElementById("frames").children;
		for (var i = 0; i < el.length; i++) {
			var e = el[i];
			var a = find_child(e, "rect").attributes;
			var ex = parseFloat(a.x.value);
			var ew = parseFloat(a.width.value);
			var upstack;
			// Is it an ancestor
			if (0 == 0) {
				upstack = parseFloat(a.y.value) > ymin;
			} else {
				upstack = parseFloat(a.y.value) < ymin;
			}
			if (upstack) {
				// Direct ancestor
				if (ex <= xmin && (ex+ew+fudge) >= xmax) {
					e.classList.add("parent");
					zoom_parent(e);
					update_text(e);
				}
				// not in current path
				else
					e.classList.add("hide");
			}
			// Children maybe
			else {
				// no common path
				if (ex < xmin || ex + fudge >= xmax) {
					e.classList.add("hide");
				}
				else {
					zoom_child(e, xmin, ratio);
					update_text(e);
				}
			}
		}
		search();
	}
	function unzoom(dont_update_text) {
		unzoombtn.classList.add("hide");
		var el = document.getElementById("frames").children;
		for(var i = 0; i < el.length; i++) {
			el[i].classList.remove("parent");
			el[i].classList.remove("hide");
			zoom_reset(el[i]);
			if(!dont_update_text) update_text(el[i]);
		}
		search();
	}
	function clearzoom() {
		unzoom();

		// remove zoom state
		var params = get_params();
		if (params.x) delete params.x;
		if (params.y) delete params.y;
		history.replaceState(null, null, parse_params(params));
	}

	// search
	function toggle_ignorecase() {
		ignorecase = !ignorecase;
		if (ignorecase) {
			ignorecaseBtn.classList.add("show");
		} else {
			ignorecaseBtn.classList.remove("show");
		}
		reset_search();
		search();
	}
	function reset_search() {
		var el = document.querySelectorAll("#frames rect");
		for (var i = 0; i < el.length; i++) {
			orig_load(el[i], "fill")
		}
		var params = get_params();
		delete params.s;
		history.replaceState(null, null, parse_params(params));
	}
	function search_prompt() {
		if (!searching) {
			var term = prompt("Enter a search term (regexp " +
			    "allowed, eg: ^ext4_)"
			    + (ignorecase ? ", ignoring case" : "")
			    + "\nPress Ctrl-i to toggle case sensitivity", "");
			if (term != null) search(term);
		} else {
			reset_search();
			searching = 0;
			currentSearchTerm = null;
			searchbtn.classList.remove("show");
			searchbtn.firstChild.nodeValue = "Search"
			matchedtxt.classList.add("hide");
			matchedtxt.firstChild.nodeValue = ""
		}
	}
	function search(term) {
		if (term) currentSearchTerm = term;

		var re = new RegExp(currentSearchTerm, ignorecase ? 'i' : '');
		var el = document.getElementById("frames").children;
		var matches = new Object();
		var maxwidth = 0;
		for (var i = 0; i < el.length; i++) {
			var e = el[i];
			var func = g_to_func(e);
			var rect = find_child(e, "rect");
			if (func == null || rect == null)
				continue;

			// Save max width. Only works as we have a root frame
			var w = parseFloat(rect.attributes.width.value);
			if (w > maxwidth)
				maxwidth = w;

			if (func.match(re)) {
				// highlight
				var x = parseFloat(rect.attributes.x.value);
				orig_save(rect, "fill");
				rect.attributes.fill.value = "rgb(230,0,230)";

				// remember matches
				if (matches[x] == undefined) {
					matches[x] = w;
				} else {
					if (w > matches[x]) {
						// overwrite with parent
						matches[x] = w;
					}
				}
				searching = 1;
			}
		}
		if (!searching)
			return;
		var params = get_params();
		params.s = currentSearchTerm;
		history.replaceState(null, null, parse_params(params));

		searchbtn.classList.add("show");
		searchbtn.firstChild.nodeValue = "Reset Search";

		// calculate percent matched, excluding vertical overlap
		var count = 0;
		var lastx = -1;
		var lastw = 0;
		var keys = Array();
		for (k in matches) {
			if (matches.hasOwnProperty(k))
				keys.push(k);
		}
		// sort the matched frames by their x location
		// ascending, then width descending
		keys.sort(function(a, b){
			return a - b;
		});
		// Step through frames saving only the biggest bottom-up frames
		// thanks to the sort order. This relies on the tree property
		// where children are always smaller than their parents.
		var fudge = 0.0001;	// JavaScript floating point
		for (var k in keys) {
			var x = parseFloat(keys[k]);
			var w = matches[keys[k]];
			if (x >= lastx + lastw - fudge) {
				count += w;
				lastx = x;
				lastw = w;
			}
		}
		// display matched percent
		matchedtxt.classList.remove("hide");
		var pct = 100 * count / maxwidth;
		if (pct != 100) pct = pct.toFixed(1)
		matchedtxt.firstChild.nodeValue = "Matched: " + pct + "%";
	}
]]>
</script>
<rect x="0.0" y="0" width="1200.0" height="374.0" fill="url(#background)"  />
<text id="title" x="600.00" y="24" >Flame Graph</text>
<text id="details" x="10.00" y="357" > </text>
<text id="unzoom" x="10.00" y="24" class="hide">Reset Zoom</text>
<text id="search" x="1090.00" y="24" >Search</text>
<text id="ignorecase" x="1174.00" y="24" >ic</text>
<text id="matched" x="1090.00" y="357" > </text>
<g id="frames">
<g >
<title>asm_sysvec_apic_timer_interrupt (250,000 samples, 0.27%)</title><rect x="876.0" y="261" width="3.1" height="15.0" fill="rgb(113,113,232)" rx="2" ry="2" />
<text  x="878.97" y="271.5" ></text>
</g>
<g >
<title>inherit_task_group.isra.0 (250,000 samples, 0.27%)</title><rect x="29.0" y="133" width="3.2" height="15.0" fill="rgb(88,88,212)" rx="2" ry="2" />
<text  x="32.03" y="143.5" ></text>
</g>
<g >
<title>unmap_single_vma (500,000 samples, 0.54%)</title><rect x="35.4" y="133" width="6.3" height="15.0" fill="rgb(104,104,225)" rx="2" ry="2" />
<text  x="38.38" y="143.5" ></text>
</g>
<g >
<title>syscall_exit_to_user_mode (500,000 samples, 0.54%)</title><rect x="1059.9" y="229" width="6.4" height="15.0" fill="rgb(135,135,251)" rx="2" ry="2" />
<text  x="1062.95" y="239.5" ></text>
</g>
<g >
<title>__fdget_pos (5,750,000 samples, 6.18%)</title><rect x="520.7" y="181" width="73.0" height="15.0" fill="rgb(94,94,216)" rx="2" ry="2" />
<text  x="523.70" y="191.5" >__fdget_..</text>
</g>
<g >
<title>write_file (1,250,000 samples, 1.34%)</title><rect x="1174.1" y="277" width="15.9" height="15.0" fill="rgb(106,106,227)" rx="2" ry="2" />
<text  x="1177.14" y="287.5" ></text>
</g>
<g >
<title>queue_work_on (250,000 samples, 0.27%)</title><rect x="10.0" y="37" width="3.2" height="15.0" fill="rgb(132,132,248)" rx="2" ry="2" />
<text  x="13.00" y="47.5" ></text>
</g>
<g >
<title>__do_sys_clone3 (250,000 samples, 0.27%)</title><rect x="29.0" y="213" width="3.2" height="15.0" fill="rgb(111,111,231)" rx="2" ry="2" />
<text  x="32.03" y="223.5" ></text>
</g>
<g >
<title>mmput (750,000 samples, 0.81%)</title><rect x="32.2" y="181" width="9.5" height="15.0" fill="rgb(105,105,226)" rx="2" ry="2" />
<text  x="35.20" y="191.5" ></text>
</g>
<g >
<title>native_flush_tlb_multi (250,000 samples, 0.27%)</title><rect x="32.2" y="117" width="3.2" height="15.0" fill="rgb(134,134,250)" rx="2" ry="2" />
<text  x="35.20" y="127.5" ></text>
</g>
<g >
<title>do_read_fault (1,250,000 samples, 1.34%)</title><rect x="13.2" y="133" width="15.8" height="15.0" fill="rgb(101,101,223)" rx="2" ry="2" />
<text  x="16.17" y="143.5" ></text>
</g>
<g >
<title>n_tty_write (250,000 samples, 0.27%)</title><rect x="10.0" y="101" width="3.2" height="15.0" fill="rgb(86,86,210)" rx="2" ry="2" />
<text  x="13.00" y="111.5" ></text>
</g>
<g >
<title>entry_SYSCALL_64_after_hwframe (250,000 samples, 0.27%)</title><rect x="29.0" y="277" width="3.2" height="15.0" fill="rgb(96,96,218)" rx="2" ry="2" />
<text  x="32.03" y="287.5" ></text>
</g>
<g >
<title>entry_SYSCALL_64_after_hwframe (250,000 samples, 0.27%)</title><rect x="10.0" y="261" width="3.2" height="15.0" fill="rgb(96,96,218)" rx="2" ry="2" />
<text  x="13.00" y="271.5" ></text>
</g>
<g >
<title>ksys_write (250,000 samples, 0.27%)</title><rect x="10.0" y="197" width="3.2" height="15.0" fill="rgb(81,81,205)" rx="2" ry="2" />
<text  x="13.00" y="207.5" ></text>
</g>
<g >
<title>__fget_files (250,000 samples, 0.27%)</title><rect x="539.7" y="165" width="3.2" height="15.0" fill="rgb(93,93,216)" rx="2" ry="2" />
<text  x="542.73" y="175.5" ></text>
</g>
<g >
<title>syscall_enter_from_user_mode (11,500,000 samples, 12.37%)</title><rect x="914.0" y="229" width="145.9" height="15.0" fill="rgb(139,139,254)" rx="2" ry="2" />
<text  x="917.03" y="239.5" >syscall_enter_from..</text>
</g>
<g >
<title>sysvec_apic_timer_interrupt (250,000 samples, 0.27%)</title><rect x="876.0" y="245" width="3.1" height="15.0" fill="rgb(98,98,220)" rx="2" ry="2" />
<text  x="878.97" y="255.5" ></text>
</g>
<g >
<title>entry_SYSCALL_64_after_hwframe (22,000,000 samples, 23.66%)</title><rect x="879.1" y="261" width="279.2" height="15.0" fill="rgb(96,96,218)" rx="2" ry="2" />
<text  x="882.14" y="271.5" >entry_SYSCALL_64_after_hwframe</text>
</g>
<g >
<title>flush_tlb_mm_range (250,000 samples, 0.27%)</title><rect x="32.2" y="133" width="3.2" height="15.0" fill="rgb(92,92,215)" rx="2" ry="2" />
<text  x="35.20" y="143.5" ></text>
</g>
<g >
<title>asm_exc_page_fault (1,250,000 samples, 1.34%)</title><rect x="13.2" y="245" width="15.8" height="15.0" fill="rgb(104,104,225)" rx="2" ry="2" />
<text  x="16.17" y="255.5" ></text>
</g>
<g >
<title>[unknown] (1,500,000 samples, 1.61%)</title><rect x="10.0" y="293" width="19.0" height="15.0" fill="rgb(86,86,210)" rx="2" ry="2" />
<text  x="13.00" y="303.5" ></text>
</g>
<g >
<title>__GI___libc_write (48,000,000 samples, 51.61%)</title><rect x="41.7" y="277" width="609.1" height="15.0" fill="rgb(94,94,217)" rx="2" ry="2" />
<text  x="44.72" y="287.5" >__GI___libc_write</text>
</g>
<g >
<title>zap_pte_range (500,000 samples, 0.54%)</title><rect x="35.4" y="85" width="6.3" height="15.0" fill="rgb(111,111,231)" rx="2" ry="2" />
<text  x="38.38" y="95.5" ></text>
</g>
<g >
<title>rcu_read_unlock_strict (250,000 samples, 0.27%)</title><rect x="1120.2" y="165" width="3.2" height="15.0" fill="rgb(99,99,221)" rx="2" ry="2" />
<text  x="1123.22" y="175.5" ></text>
</g>
<g >
<title>entry_SYSCALL_64_after_hwframe (30,000,000 samples, 32.26%)</title><rect x="270.1" y="261" width="380.7" height="15.0" fill="rgb(96,96,218)" rx="2" ry="2" />
<text  x="273.11" y="271.5" >entry_SYSCALL_64_after_hwframe</text>
</g>
<g >
<title>unlock_page_memcg (1,250,000 samples, 1.34%)</title><rect x="13.2" y="69" width="15.8" height="15.0" fill="rgb(122,122,240)" rx="2" ry="2" />
<text  x="16.17" y="79.5" ></text>
</g>
<g >
<title>__lock_text_start (250,000 samples, 0.27%)</title><rect x="29.0" y="101" width="3.2" height="15.0" fill="rgb(112,112,232)" rx="2" ry="2" />
<text  x="32.03" y="111.5" ></text>
</g>
<g >
<title>ksys_write (9,750,000 samples, 10.48%)</title><rect x="495.3" y="197" width="123.7" height="15.0" fill="rgb(81,81,205)" rx="2" ry="2" />
<text  x="498.32" y="207.5" >ksys_write</text>
</g>
<g >
<title>x64_sys_call (1,750,000 samples, 1.88%)</title><rect x="1136.1" y="245" width="22.2" height="15.0" fill="rgb(130,130,247)" rx="2" ry="2" />
<text  x="1139.08" y="255.5" >x..</text>
</g>
<g >
<title>smp_call_function_many_cond (250,000 samples, 0.27%)</title><rect x="32.2" y="85" width="3.2" height="15.0" fill="rgb(98,98,220)" rx="2" ry="2" />
<text  x="35.20" y="95.5" ></text>
</g>
<g >
<title>rcu_read_unlock_strict (250,000 samples, 0.27%)</title><rect x="590.5" y="149" width="3.2" height="15.0" fill="rgb(99,99,221)" rx="2" ry="2" />
<text  x="593.48" y="159.5" ></text>
</g>
<g >
<title>x64_sys_call (250,000 samples, 0.27%)</title><rect x="29.0" y="245" width="3.2" height="15.0" fill="rgb(130,130,247)" rx="2" ry="2" />
<text  x="32.03" y="255.5" ></text>
</g>
<g >
<title>__x64_sys_write (2,750,000 samples, 2.96%)</title><rect x="298.7" y="229" width="34.8" height="15.0" fill="rgb(129,129,246)" rx="2" ry="2" />
<text  x="301.66" y="239.5" >__..</text>
</g>
<g >
<title>__x64_sys_write (11,000,000 samples, 11.83%)</title><rect x="492.2" y="213" width="139.5" height="15.0" fill="rgb(129,129,246)" rx="2" ry="2" />
<text  x="495.15" y="223.5" >__x64_sys_write</text>
</g>
<g >
<title>__x64_sys_write (250,000 samples, 0.27%)</title><rect x="10.0" y="213" width="3.2" height="15.0" fill="rgb(129,129,246)" rx="2" ry="2" />
<text  x="13.00" y="223.5" ></text>
</g>
<g >
<title>perf_event_init_context (250,000 samples, 0.27%)</title><rect x="29.0" y="149" width="3.2" height="15.0" fill="rgb(90,90,214)" rx="2" ry="2" />
<text  x="32.03" y="159.5" ></text>
</g>
<g >
<title>__vfprintf_internal (1,250,000 samples, 1.34%)</title><rect x="13.2" y="277" width="15.8" height="15.0" fill="rgb(112,112,232)" rx="2" ry="2" />
<text  x="16.17" y="287.5" ></text>
</g>
<g >
<title>__handle_mm_fault (1,250,000 samples, 1.34%)</title><rect x="13.2" y="181" width="15.8" height="15.0" fill="rgb(82,82,207)" rx="2" ry="2" />
<text  x="16.17" y="191.5" ></text>
</g>
<g >
<title>syscall_exit_to_user_mode (500,000 samples, 0.54%)</title><rect x="1129.7" y="245" width="6.4" height="15.0" fill="rgb(135,135,251)" rx="2" ry="2" />
<text  x="1132.73" y="255.5" ></text>
</g>
<g >
<title>__GI___printf_fp_l (1,250,000 samples, 1.34%)</title><rect x="13.2" y="261" width="15.8" height="15.0" fill="rgb(134,134,250)" rx="2" ry="2" />
<text  x="16.17" y="271.5" ></text>
</g>
<g >
<title>all (93,000,000 samples, 100%)</title><rect x="10.0" y="325" width="1180.0" height="15.0" fill="rgb(90,90,213)" rx="2" ry="2" />
<text  x="13.00" y="335.5" ></text>
</g>
<g >
<title>fsync_file (1,250,000 samples, 1.34%)</title><rect x="1158.3" y="277" width="15.8" height="15.0" fill="rgb(108,108,228)" rx="2" ry="2" />
<text  x="1161.28" y="287.5" ></text>
</g>
<g >
<title>do_user_addr_fault (1,250,000 samples, 1.34%)</title><rect x="13.2" y="213" width="15.8" height="15.0" fill="rgb(108,108,228)" rx="2" ry="2" />
<text  x="16.17" y="223.5" ></text>
</g>
<g >
<title>x64_sys_call (5,000,000 samples, 5.38%)</title><rect x="1066.3" y="229" width="63.4" height="15.0" fill="rgb(130,130,247)" rx="2" ry="2" />
<text  x="1069.29" y="239.5" >x64_sy..</text>
</g>
<g >
<title>__fget_files (2,250,000 samples, 2.42%)</title><rect x="561.9" y="149" width="28.6" height="15.0" fill="rgb(93,93,216)" rx="2" ry="2" />
<text  x="564.94" y="159.5" >__..</text>
</g>
<g >
<title>do_syscall_64 (750,000 samples, 0.81%)</title><rect x="32.2" y="277" width="9.5" height="15.0" fill="rgb(85,85,209)" rx="2" ry="2" />
<text  x="35.20" y="287.5" ></text>
</g>
<g >
<title>page_add_file_rmap (1,250,000 samples, 1.34%)</title><rect x="13.2" y="85" width="15.8" height="15.0" fill="rgb(83,83,207)" rx="2" ry="2" />
<text  x="16.17" y="95.5" ></text>
</g>
<g >
<title>__x64_sys_fsync (500,000 samples, 0.54%)</title><rect x="904.5" y="229" width="6.4" height="15.0" fill="rgb(131,131,247)" rx="2" ry="2" />
<text  x="907.52" y="239.5" ></text>
</g>
<g >
<title>handle_mm_fault (1,250,000 samples, 1.34%)</title><rect x="13.2" y="197" width="15.8" height="15.0" fill="rgb(115,115,234)" rx="2" ry="2" />
<text  x="16.17" y="207.5" ></text>
</g>
<g >
<title>file_tty_write.constprop.0 (250,000 samples, 0.27%)</title><rect x="10.0" y="133" width="3.2" height="15.0" fill="rgb(96,96,219)" rx="2" ry="2" />
<text  x="13.00" y="143.5" ></text>
</g>
<g >
<title>srso_safe_ret (250,000 samples, 0.27%)</title><rect x="1126.6" y="213" width="3.1" height="15.0" fill="rgb(107,107,227)" rx="2" ry="2" />
<text  x="1129.56" y="223.5" ></text>
</g>
<g >
<title>vfs_write (250,000 samples, 0.27%)</title><rect x="10.0" y="181" width="3.2" height="15.0" fill="rgb(134,134,250)" rx="2" ry="2" />
<text  x="13.00" y="191.5" ></text>
</g>
<g >
<title>do_syscall_64 (19,750,000 samples, 21.24%)</title><rect x="879.1" y="245" width="250.6" height="15.0" fill="rgb(85,85,209)" rx="2" ry="2" />
<text  x="882.14" y="255.5" >do_syscall_64</text>
</g>
<g >
<title>__fget_light (1,500,000 samples, 1.61%)</title><rect x="593.7" y="181" width="19.0" height="15.0" fill="rgb(114,114,233)" rx="2" ry="2" />
<text  x="596.66" y="191.5" ></text>
</g>
<g >
<title>srso_safe_ret (250,000 samples, 0.27%)</title><rect x="910.9" y="229" width="3.1" height="15.0" fill="rgb(107,107,227)" rx="2" ry="2" />
<text  x="913.86" y="239.5" ></text>
</g>
<g >
<title>tty_write (250,000 samples, 0.27%)</title><rect x="10.0" y="149" width="3.2" height="15.0" fill="rgb(115,115,234)" rx="2" ry="2" />
<text  x="13.00" y="159.5" ></text>
</g>
<g >
<title>inherit_event.constprop.0 (250,000 samples, 0.27%)</title><rect x="29.0" y="117" width="3.2" height="15.0" fill="rgb(111,111,231)" rx="2" ry="2" />
<text  x="32.03" y="127.5" ></text>
</g>
<g >
<title>do_set_pte (1,250,000 samples, 1.34%)</title><rect x="13.2" y="101" width="15.8" height="15.0" fill="rgb(137,137,253)" rx="2" ry="2" />
<text  x="16.17" y="111.5" ></text>
</g>
<g >
<title>__GI___libc_write (250,000 samples, 0.27%)</title><rect x="10.0" y="277" width="3.2" height="15.0" fill="rgb(94,94,217)" rx="2" ry="2" />
<text  x="13.00" y="287.5" ></text>
</g>
<g >
<title>do_fault (1,250,000 samples, 1.34%)</title><rect x="13.2" y="149" width="15.8" height="15.0" fill="rgb(132,132,248)" rx="2" ry="2" />
<text  x="16.17" y="159.5" ></text>
</g>
<g >
<title>on_each_cpu_cond_mask (250,000 samples, 0.27%)</title><rect x="32.2" y="101" width="3.2" height="15.0" fill="rgb(126,126,243)" rx="2" ry="2" />
<text  x="35.20" y="111.5" ></text>
</g>
<g >
<title>__fget_light (250,000 samples, 0.27%)</title><rect x="1123.4" y="197" width="3.2" height="15.0" fill="rgb(114,114,233)" rx="2" ry="2" />
<text  x="1126.39" y="207.5" ></text>
</g>
<g >
<title>copy_process (250,000 samples, 0.27%)</title><rect x="29.0" y="181" width="3.2" height="15.0" fill="rgb(114,114,233)" rx="2" ry="2" />
<text  x="32.03" y="191.5" ></text>
</g>
<g >
<title>tlb_finish_mmu (250,000 samples, 0.27%)</title><rect x="32.2" y="149" width="3.2" height="15.0" fill="rgb(135,135,251)" rx="2" ry="2" />
<text  x="35.20" y="159.5" ></text>
</g>
<g >
<title>tty_insert_flip_string_and_push_buffer (250,000 samples, 0.27%)</title><rect x="10.0" y="53" width="3.2" height="15.0" fill="rgb(94,94,217)" rx="2" ry="2" />
<text  x="13.00" y="63.5" ></text>
</g>
<g >
<title>do_group_exit (750,000 samples, 0.81%)</title><rect x="32.2" y="229" width="9.5" height="15.0" fill="rgb(97,97,219)" rx="2" ry="2" />
<text  x="35.20" y="239.5" ></text>
</g>
<g >
<title>srso_safe_ret (250,000 samples, 0.27%)</title><rect x="38.5" y="69" width="3.2" height="15.0" fill="rgb(107,107,227)" rx="2" ry="2" />
<text  x="41.55" y="79.5" ></text>
</g>
<g >
<title>__x64_sys_fsync (3,250,000 samples, 3.49%)</title><rect x="1085.3" y="213" width="41.3" height="15.0" fill="rgb(131,131,247)" rx="2" ry="2" />
<text  x="1088.32" y="223.5" >__x..</text>
</g>
<g >
<title>filemap_map_pages (1,250,000 samples, 1.34%)</title><rect x="13.2" y="117" width="15.8" height="15.0" fill="rgb(109,109,229)" rx="2" ry="2" />
<text  x="16.17" y="127.5" ></text>
</g>
<g >
<title>__fget_light (2,000,000 samples, 2.15%)</title><rect x="1098.0" y="181" width="25.4" height="15.0" fill="rgb(114,114,233)" rx="2" ry="2" />
<text  x="1101.01" y="191.5" >_..</text>
</g>
<g >
<title>do_syscall_64 (250,000 samples, 0.27%)</title><rect x="29.0" y="261" width="3.2" height="15.0" fill="rgb(85,85,209)" rx="2" ry="2" />
<text  x="32.03" y="271.5" ></text>
</g>
<g >
<title>__fdget (1,500,000 samples, 1.61%)</title><rect x="1066.3" y="213" width="19.0" height="15.0" fill="rgb(90,90,214)" rx="2" ry="2" />
<text  x="1069.29" y="223.5" ></text>
</g>
<g >
<title>process_output_block (250,000 samples, 0.27%)</title><rect x="10.0" y="85" width="3.2" height="15.0" fill="rgb(136,136,252)" rx="2" ry="2" />
<text  x="13.00" y="95.5" ></text>
</g>
<g >
<title>irq_exit_rcu (250,000 samples, 0.27%)</title><rect x="876.0" y="229" width="3.1" height="15.0" fill="rgb(139,139,254)" rx="2" ry="2" />
<text  x="878.97" y="239.5" ></text>
</g>
<g >
<title>new_sync_write (250,000 samples, 0.27%)</title><rect x="10.0" y="165" width="3.2" height="15.0" fill="rgb(127,127,244)" rx="2" ry="2" />
<text  x="13.00" y="175.5" ></text>
</g>
<g >
<title>syscall_enter_from_user_mode (11,500,000 samples, 12.37%)</title><rect x="333.5" y="229" width="146.0" height="15.0" fill="rgb(139,139,254)" rx="2" ry="2" />
<text  x="336.55" y="239.5" >syscall_enter_from..</text>
</g>
<g >
<title>start_thread (90,500,000 samples, 97.31%)</title><rect x="41.7" y="293" width="1148.3" height="15.0" fill="rgb(89,89,212)" rx="2" ry="2" />
<text  x="44.72" y="303.5" >start_thread</text>
</g>
<g >
<title>__fget_files (1,500,000 samples, 1.61%)</title><rect x="1101.2" y="165" width="19.0" height="15.0" fill="rgb(93,93,216)" rx="2" ry="2" />
<text  x="1104.18" y="175.5" ></text>
</g>
<g >
<title>handle_pte_fault (1,250,000 samples, 1.34%)</title><rect x="13.2" y="165" width="15.8" height="15.0" fill="rgb(94,94,217)" rx="2" ry="2" />
<text  x="16.17" y="175.5" ></text>
</g>
<g >
<title>kernel_clone (250,000 samples, 0.27%)</title><rect x="29.0" y="197" width="3.2" height="15.0" fill="rgb(124,124,241)" rx="2" ry="2" />
<text  x="32.03" y="207.5" ></text>
</g>
<g >
<title>syscall_exit_to_user_mode (500,000 samples, 0.54%)</title><rect x="634.9" y="245" width="6.3" height="15.0" fill="rgb(135,135,251)" rx="2" ry="2" />
<text  x="637.89" y="255.5" ></text>
</g>
<g >
<title>exit_mm (750,000 samples, 0.81%)</title><rect x="32.2" y="197" width="9.5" height="15.0" fill="rgb(117,117,236)" rx="2" ry="2" />
<text  x="35.20" y="207.5" ></text>
</g>
<g >
<title>unmap_page_range (500,000 samples, 0.54%)</title><rect x="35.4" y="117" width="6.3" height="15.0" fill="rgb(81,81,206)" rx="2" ry="2" />
<text  x="38.38" y="127.5" ></text>
</g>
<g >
<title>stalls.o (93,000,000 samples, 100.00%)</title><rect x="10.0" y="309" width="1180.0" height="15.0" fill="rgb(124,124,242)" rx="2" ry="2" />
<text  x="13.00" y="319.5" >stalls.o</text>
</g>
<g >
<title>x64_sys_call (12,250,000 samples, 13.17%)</title><rect x="479.5" y="229" width="155.4" height="15.0" fill="rgb(130,130,247)" rx="2" ry="2" />
<text  x="482.46" y="239.5" >x64_sys_call</text>
</g>
<g >
<title>exc_page_fault (1,250,000 samples, 1.34%)</title><rect x="13.2" y="229" width="15.8" height="15.0" fill="rgb(89,89,212)" rx="2" ry="2" />
<text  x="16.17" y="239.5" ></text>
</g>
<g >
<title>x64_sys_call (250,000 samples, 0.27%)</title><rect x="10.0" y="229" width="3.2" height="15.0" fill="rgb(130,130,247)" rx="2" ry="2" />
<text  x="13.00" y="239.5" ></text>
</g>
<g >
<title>clone3 (250,000 samples, 0.27%)</title><rect x="29.0" y="293" width="3.2" height="15.0" fill="rgb(94,94,216)" rx="2" ry="2" />
<text  x="32.03" y="303.5" ></text>
</g>
<g >
<title>do_exit (750,000 samples, 0.81%)</title><rect x="32.2" y="213" width="9.5" height="15.0" fill="rgb(111,111,231)" rx="2" ry="2" />
<text  x="35.20" y="223.5" ></text>
</g>
<g >
<title>unmap_vmas (500,000 samples, 0.54%)</title><rect x="35.4" y="149" width="6.3" height="15.0" fill="rgb(125,125,243)" rx="2" ry="2" />
<text  x="38.38" y="159.5" ></text>
</g>
<g >
<title>fsync (39,750,000 samples, 42.74%)</title><rect x="653.9" y="277" width="504.4" height="15.0" fill="rgb(109,109,229)" rx="2" ry="2" />
<text  x="656.92" y="287.5" >fsync</text>
</g>
<g >
<title>do_tty_write (250,000 samples, 0.27%)</title><rect x="10.0" y="117" width="3.2" height="15.0" fill="rgb(83,83,207)" rx="2" ry="2" />
<text  x="13.00" y="127.5" ></text>
</g>
<g >
<title>__x64_sys_exit_group (750,000 samples, 0.81%)</title><rect x="32.2" y="245" width="9.5" height="15.0" fill="rgb(91,91,214)" rx="2" ry="2" />
<text  x="35.20" y="255.5" ></text>
</g>
<g >
<title>do_syscall_64 (250,000 samples, 0.27%)</title><rect x="10.0" y="245" width="3.2" height="15.0" fill="rgb(85,85,209)" rx="2" ry="2" />
<text  x="13.00" y="255.5" ></text>
</g>
<g >
<title>pty_write (250,000 samples, 0.27%)</title><rect x="10.0" y="69" width="3.2" height="15.0" fill="rgb(86,86,210)" rx="2" ry="2" />
<text  x="13.00" y="79.5" ></text>
</g>
<g >
<title>__fdget (2,000,000 samples, 2.15%)</title><rect x="1098.0" y="197" width="25.4" height="15.0" fill="rgb(90,90,214)" rx="2" ry="2" />
<text  x="1101.01" y="207.5" >_..</text>
</g>
<g >
<title>perf_event_init_task (250,000 samples, 0.27%)</title><rect x="29.0" y="165" width="3.2" height="15.0" fill="rgb(131,131,247)" rx="2" ry="2" />
<text  x="32.03" y="175.5" ></text>
</g>
<g >
<title>__fget_light (4,000,000 samples, 4.30%)</title><rect x="542.9" y="165" width="50.8" height="15.0" fill="rgb(114,114,233)" rx="2" ry="2" />
<text  x="545.90" y="175.5" >__fge..</text>
</g>
<g >
<title>handle_softirqs (250,000 samples, 0.27%)</title><rect x="876.0" y="213" width="3.1" height="15.0" fill="rgb(120,120,238)" rx="2" ry="2" />
<text  x="878.97" y="223.5" ></text>
</g>
<g >
<title>x64_sys_call (750,000 samples, 0.81%)</title><rect x="641.2" y="245" width="9.6" height="15.0" fill="rgb(130,130,247)" rx="2" ry="2" />
<text  x="644.24" y="255.5" ></text>
</g>
<g >
<title>__GI___pthread_disable_asynccancel (250,000 samples, 0.27%)</title><rect x="650.8" y="277" width="3.1" height="15.0" fill="rgb(118,118,236)" rx="2" ry="2" />
<text  x="653.75" y="287.5" ></text>
</g>
<g >
<title>srso_safe_ret (1,000,000 samples, 1.08%)</title><rect x="619.0" y="197" width="12.7" height="15.0" fill="rgb(107,107,227)" rx="2" ry="2" />
<text  x="622.03" y="207.5" ></text>
</g>
<g >
<title>do_syscall_64 (28,750,000 samples, 30.91%)</title><rect x="270.1" y="245" width="364.8" height="15.0" fill="rgb(85,85,209)" rx="2" ry="2" />
<text  x="273.11" y="255.5" >do_syscall_64</text>
</g>
<g >
<title>entry_SYSCALL_64_after_hwframe (750,000 samples, 0.81%)</title><rect x="32.2" y="293" width="9.5" height="15.0" fill="rgb(96,96,218)" rx="2" ry="2" />
<text  x="35.20" y="303.5" ></text>
</g>
<g >
<title>__x64_sys_clone3 (250,000 samples, 0.27%)</title><rect x="29.0" y="229" width="3.2" height="15.0" fill="rgb(115,115,234)" rx="2" ry="2" />
<text  x="32.03" y="239.5" ></text>
</g>
<g >
<title>srso_safe_ret (250,000 samples, 0.27%)</title><rect x="631.7" y="213" width="3.2" height="15.0" fill="rgb(107,107,227)" rx="2" ry="2" />
<text  x="634.72" y="223.5" ></text>
</g>
<g >
<title>srso_safe_ret (500,000 samples, 0.54%)</title><rect x="612.7" y="181" width="6.3" height="15.0" fill="rgb(107,107,227)" rx="2" ry="2" />
<text  x="615.69" y="191.5" ></text>
</g>
<g >
<title>zap_pmd_range.isra.0 (500,000 samples, 0.54%)</title><rect x="35.4" y="101" width="6.3" height="15.0" fill="rgb(127,127,244)" rx="2" ry="2" />
<text  x="38.38" y="111.5" ></text>
</g>
<g >
<title>exit_mmap (750,000 samples, 0.81%)</title><rect x="32.2" y="165" width="9.5" height="15.0" fill="rgb(117,117,236)" rx="2" ry="2" />
<text  x="35.20" y="175.5" ></text>
</g>
<g >
<title>x64_sys_call (750,000 samples, 0.81%)</title><rect x="32.2" y="261" width="9.5" height="15.0" fill="rgb(130,130,247)" rx="2" ry="2" />
<text  x="35.20" y="271.5" ></text>
</g>
</g>
</svg>
