<?xml version="1.0" standalone="no"?>
<!DOCTYPE svg PUBLIC "-//W3C//DTD SVG 1.1//EN" "http://www.w3.org/Graphics/SVG/1.1/DTD/svg11.dtd">
<svg version="1.1" width="1200" height="598" onload="init(evt)" viewBox="0 0 1200 598" xmlns="http://www.w3.org/2000/svg" xmlns:xlink="http://www.w3.org/1999/xlink">
<!-- Flame graph stack visualization. See https://github.com/brendangregg/FlameGraph for latest version, and http://www.brendangregg.com/flamegraphs.html for examples. -->
<!-- NOTES:  -->
<defs>
	<linearGradient id="background" y1="0" y2="1" x1="0" x2="0" >
		<stop stop-color="#eeeeee" offset="5%" />
		<stop stop-color="#eeeeb0" offset="95%" />
	</linearGradient>
</defs>
<style type="text/css">
	text { font-family:Verdana; font-size:12px; fill:rgb(0,0,0); }
	#search, #ignorecase { opacity:0.1; cursor:pointer; }
	#search:hover, #search.show, #ignorecase:hover, #ignorecase.show { opacity:1; }
	#subtitle { text-anchor:middle; font-color:rgb(160,160,160); }
	#title { text-anchor:middle; font-size:17px}
	#unzoom { cursor:pointer; }
	#frames > *:hover { stroke:black; stroke-width:0.5; cursor:pointer; }
	.hide { display:none; }
	.parent { opacity:0.5; }
</style>
<script type="text/ecmascript">
<![CDATA[
	"use strict";
	var details, searchbtn, unzoombtn, matchedtxt, svg, searching, currentSearchTerm, ignorecase, ignorecaseBtn;
	function init(evt) {
		details = document.getElementById("details").firstChild;
		searchbtn = document.getElementById("search");
		ignorecaseBtn = document.getElementById("ignorecase");
		unzoombtn = document.getElementById("unzoom");
		matchedtxt = document.getElementById("matched");
		svg = document.getElementsByTagName("svg")[0];
		searching = 0;
		currentSearchTerm = null;

		// use GET parameters to restore a flamegraphs state.
		var params = get_params();
		if (params.x && params.y)
			zoom(find_group(document.querySelector('[x="' + params.x + '"][y="' + params.y + '"]')));
                if (params.s) search(params.s);
	}

	// event listeners
	window.addEventListener("click", function(e) {
		var target = find_group(e.target);
		if (target) {
			if (target.nodeName == "a") {
				if (e.ctrlKey === false) return;
				e.preventDefault();
			}
			if (target.classList.contains("parent")) unzoom(true);
			zoom(target);
			if (!document.querySelector('.parent')) {
				// we have basically done a clearzoom so clear the url
				var params = get_params();
				if (params.x) delete params.x;
				if (params.y) delete params.y;
				history.replaceState(null, null, parse_params(params));
				unzoombtn.classList.add("hide");
				return;
			}

			// set parameters for zoom state
			var el = target.querySelector("rect");
			if (el && el.attributes && el.attributes.y && el.attributes._orig_x) {
				var params = get_params()
				params.x = el.attributes._orig_x.value;
				params.y = el.attributes.y.value;
				history.replaceState(null, null, parse_params(params));
			}
		}
		else if (e.target.id == "unzoom") clearzoom();
		else if (e.target.id == "search") search_prompt();
		else if (e.target.id == "ignorecase") toggle_ignorecase();
	}, false)

	// mouse-over for info
	// show
	window.addEventListener("mouseover", function(e) {
		var target = find_group(e.target);
		if (target) details.nodeValue = "Function: " + g_to_text(target);
	}, false)

	// clear
	window.addEventListener("mouseout", function(e) {
		var target = find_group(e.target);
		if (target) details.nodeValue = ' ';
	}, false)

	// ctrl-F for search
	// ctrl-I to toggle case-sensitive search
	window.addEventListener("keydown",function (e) {
		if (e.keyCode === 114 || (e.ctrlKey && e.keyCode === 70)) {
			e.preventDefault();
			search_prompt();
		}
		else if (e.ctrlKey && e.keyCode === 73) {
			e.preventDefault();
			toggle_ignorecase();
		}
	}, false)

	// functions
	function get_params() {
		var params = {};
		var paramsarr = window.location.search.substr(1).split('&');
		for (var i = 0; i < paramsarr.length; ++i) {
			var tmp = paramsarr[i].split("=");
			if (!tmp[0] || !tmp[1]) continue;
			params[tmp[0]]  = decodeURIComponent(tmp[1]);
		}
		return params;
	}
	function parse_params(params) {
		var uri = "?";
		for (var key in params) {
			uri += key + '=' + encodeURIComponent(params[key]) + '&';
		}
		if (uri.slice(-1) == "&")
			uri = uri.substring(0, uri.length - 1);
		if (uri == '?')
			uri = window.location.href.split('?')[0];
		return uri;
	}
	function find_child(node, selector) {
		var children = node.querySelectorAll(selector);
		if (children.length) return children[0];
	}
	function find_group(node) {
		var parent = node.parentElement;
		if (!parent) return;
		if (parent.id == "frames") return node;
		return find_group(parent);
	}
	function orig_save(e, attr, val) {
		if (e.attributes["_orig_" + attr] != undefined) return;
		if (e.attributes[attr] == undefined) return;
		if (val == undefined) val = e.attributes[attr].value;
		e.setAttribute("_orig_" + attr, val);
	}
	function orig_load(e, attr) {
		if (e.attributes["_orig_"+attr] == undefined) return;
		e.attributes[attr].value = e.attributes["_orig_" + attr].value;
		e.removeAttribute("_orig_"+attr);
	}
	function g_to_text(e) {
		var text = find_child(e, "title").firstChild.nodeValue;
		return (text)
	}
	function g_to_func(e) {
		var func = g_to_text(e);
		// if there's any manipulation we want to do to the function
		// name before it's searched, do it here before returning.
		return (func);
	}
	function update_text(e) {
		var r = find_child(e, "rect");
		var t = find_child(e, "text");
		var w = parseFloat(r.attributes.width.value) -3;
		var txt = find_child(e, "title").textContent.replace(/\([^(]*\)$/,"");
		t.attributes.x.value = parseFloat(r.attributes.x.value) + 3;

		// Smaller than this size won't fit anything
		if (w < 2 * 12 * 0.59) {
			t.textContent = "";
			return;
		}

		t.textContent = txt;
		var sl = t.getSubStringLength(0, txt.length);
		// check if only whitespace or if we can fit the entire string into width w
		if (/^ *$/.test(txt) || sl < w)
			return;

		// this isn't perfect, but gives a good starting point
		// and avoids calling getSubStringLength too often
		var start = Math.floor((w/sl) * txt.length);
		for (var x = start; x > 0; x = x-2) {
			if (t.getSubStringLength(0, x + 2) <= w) {
				t.textContent = txt.substring(0, x) + "..";
				return;
			}
		}
		t.textContent = "";
	}

	// zoom
	function zoom_reset(e) {
		if (e.attributes != undefined) {
			orig_load(e, "x");
			orig_load(e, "width");
		}
		if (e.childNodes == undefined) return;
		for (var i = 0, c = e.childNodes; i < c.length; i++) {
			zoom_reset(c[i]);
		}
	}
	function zoom_child(e, x, ratio) {
		if (e.attributes != undefined) {
			if (e.attributes.x != undefined) {
				orig_save(e, "x");
				e.attributes.x.value = (parseFloat(e.attributes.x.value) - x - 10) * ratio + 10;
				if (e.tagName == "text")
					e.attributes.x.value = find_child(e.parentNode, "rect[x]").attributes.x.value + 3;
			}
			if (e.attributes.width != undefined) {
				orig_save(e, "width");
				e.attributes.width.value = parseFloat(e.attributes.width.value) * ratio;
			}
		}

		if (e.childNodes == undefined) return;
		for (var i = 0, c = e.childNodes; i < c.length; i++) {
			zoom_child(c[i], x - 10, ratio);
		}
	}
	function zoom_parent(e) {
		if (e.attributes) {
			if (e.attributes.x != undefined) {
				orig_save(e, "x");
				e.attributes.x.value = 10;
			}
			if (e.attributes.width != undefined) {
				orig_save(e, "width");
				e.attributes.width.value = parseInt(svg.width.baseVal.value) - (10 * 2);
			}
		}
		if (e.childNodes == undefined) return;
		for (var i = 0, c = e.childNodes; i < c.length; i++) {
			zoom_parent(c[i]);
		}
	}
	function zoom(node) {
		var attr = find_child(node, "rect").attributes;
		var width = parseFloat(attr.width.value);
		var xmin = parseFloat(attr.x.value);
		var xmax = parseFloat(xmin + width);
		var ymin = parseFloat(attr.y.value);
		var ratio = (svg.width.baseVal.value - 2 * 10) / width;

		// XXX: Workaround for JavaScript float issues (fix me)
		var fudge = 0.0001;

		unzoombtn.classList.remove("hide");

		var el = document.getElementById("frames").children;
		for (var i = 0; i < el.length; i++) {
			var e = el[i];
			var a = find_child(e, "rect").attributes;
			var ex = parseFloat(a.x.value);
			var ew = parseFloat(a.width.value);
			var upstack;
			// Is it an ancestor
			if (0 == 0) {
				upstack = parseFloat(a.y.value) > ymin;
			} else {
				upstack = parseFloat(a.y.value) < ymin;
			}
			if (upstack) {
				// Direct ancestor
				if (ex <= xmin && (ex+ew+fudge) >= xmax) {
					e.classList.add("parent");
					zoom_parent(e);
					update_text(e);
				}
				// not in current path
				else
					e.classList.add("hide");
			}
			// Children maybe
			else {
				// no common path
				if (ex < xmin || ex + fudge >= xmax) {
					e.classList.add("hide");
				}
				else {
					zoom_child(e, xmin, ratio);
					update_text(e);
				}
			}
		}
		search();
	}
	function unzoom(dont_update_text) {
		unzoombtn.classList.add("hide");
		var el = document.getElementById("frames").children;
		for(var i = 0; i < el.length; i++) {
			el[i].classList.remove("parent");
			el[i].classList.remove("hide");
			zoom_reset(el[i]);
			if(!dont_update_text) update_text(el[i]);
		}
		search();
	}
	function clearzoom() {
		unzoom();

		// remove zoom state
		var params = get_params();
		if (params.x) delete params.x;
		if (params.y) delete params.y;
		history.replaceState(null, null, parse_params(params));
	}

	// search
	function toggle_ignorecase() {
		ignorecase = !ignorecase;
		if (ignorecase) {
			ignorecaseBtn.classList.add("show");
		} else {
			ignorecaseBtn.classList.remove("show");
		}
		reset_search();
		search();
	}
	function reset_search() {
		var el = document.querySelectorAll("#frames rect");
		for (var i = 0; i < el.length; i++) {
			orig_load(el[i], "fill")
		}
		var params = get_params();
		delete params.s;
		history.replaceState(null, null, parse_params(params));
	}
	function search_prompt() {
		if (!searching) {
			var term = prompt("Enter a search term (regexp " +
			    "allowed, eg: ^ext4_)"
			    + (ignorecase ? ", ignoring case" : "")
			    + "\nPress Ctrl-i to toggle case sensitivity", "");
			if (term != null) search(term);
		} else {
			reset_search();
			searching = 0;
			currentSearchTerm = null;
			searchbtn.classList.remove("show");
			searchbtn.firstChild.nodeValue = "Search"
			matchedtxt.classList.add("hide");
			matchedtxt.firstChild.nodeValue = ""
		}
	}
	function search(term) {
		if (term) currentSearchTerm = term;

		var re = new RegExp(currentSearchTerm, ignorecase ? 'i' : '');
		var el = document.getElementById("frames").children;
		var matches = new Object();
		var maxwidth = 0;
		for (var i = 0; i < el.length; i++) {
			var e = el[i];
			var func = g_to_func(e);
			var rect = find_child(e, "rect");
			if (func == null || rect == null)
				continue;

			// Save max width. Only works as we have a root frame
			var w = parseFloat(rect.attributes.width.value);
			if (w > maxwidth)
				maxwidth = w;

			if (func.match(re)) {
				// highlight
				var x = parseFloat(rect.attributes.x.value);
				orig_save(rect, "fill");
				rect.attributes.fill.value = "rgb(230,0,230)";

				// remember matches
				if (matches[x] == undefined) {
					matches[x] = w;
				} else {
					if (w > matches[x]) {
						// overwrite with parent
						matches[x] = w;
					}
				}
				searching = 1;
			}
		}
		if (!searching)
			return;
		var params = get_params();
		params.s = currentSearchTerm;
		history.replaceState(null, null, parse_params(params));

		searchbtn.classList.add("show");
		searchbtn.firstChild.nodeValue = "Reset Search";

		// calculate percent matched, excluding vertical overlap
		var count = 0;
		var lastx = -1;
		var lastw = 0;
		var keys = Array();
		for (k in matches) {
			if (matches.hasOwnProperty(k))
				keys.push(k);
		}
		// sort the matched frames by their x location
		// ascending, then width descending
		keys.sort(function(a, b){
			return a - b;
		});
		// Step through frames saving only the biggest bottom-up frames
		// thanks to the sort order. This relies on the tree property
		// where children are always smaller than their parents.
		var fudge = 0.0001;	// JavaScript floating point
		for (var k in keys) {
			var x = parseFloat(keys[k]);
			var w = matches[keys[k]];
			if (x >= lastx + lastw - fudge) {
				count += w;
				lastx = x;
				lastw = w;
			}
		}
		// display matched percent
		matchedtxt.classList.remove("hide");
		var pct = 100 * count / maxwidth;
		if (pct != 100) pct = pct.toFixed(1)
		matchedtxt.firstChild.nodeValue = "Matched: " + pct + "%";
	}
]]>
</script>
<rect x="0.0" y="0" width="1200.0" height="598.0" fill="url(#background)"  />
<text id="title" x="600.00" y="24" >Off-CPU Time unaligned</text>
<text id="details" x="10.00" y="581" > </text>
<text id="unzoom" x="10.00" y="24" class="hide">Reset Zoom</text>
<text id="search" x="1090.00" y="24" >Search</text>
<text id="ignorecase" x="1174.00" y="24" >ic</text>
<text id="matched" x="1090.00" y="581" > </text>
<g id="frames">
<g >
<title>bit_wait_io (6,406 us, 0.04%)</title><rect x="1153.6" y="85" width="0.5" height="15.0" fill="rgb(238,109,37)" rx="2" ry="2" />
<text  x="1156.62" y="95.5" ></text>
</g>
<g >
<title>ext4_buffered_write_iter (917,784 us, 5.78%)</title><rect x="1121.8" y="389" width="68.2" height="15.0" fill="rgb(240,145,38)" rx="2" ry="2" />
<text  x="1124.85" y="399.5" >ext4_bu..</text>
</g>
<g >
<title>__jbd2_log_wait_for_space (15,876 us, 0.10%)</title><rect x="1152.9" y="229" width="1.2" height="15.0" fill="rgb(252,122,52)" rx="2" ry="2" />
<text  x="1155.91" y="239.5" ></text>
</g>
<g >
<title>ext4_writepages (69,193 us, 0.44%)</title><rect x="458.5" y="373" width="5.1" height="15.0" fill="rgb(239,145,37)" rx="2" ry="2" />
<text  x="461.50" y="383.5" ></text>
</g>
<g >
<title>generic_update_time (5,162 us, 0.03%)</title><rect x="1121.8" y="341" width="0.4" height="15.0" fill="rgb(236,189,34)" rx="2" ry="2" />
<text  x="1124.85" y="351.5" ></text>
</g>
<g >
<title>generic_write_end (499,708 us, 3.14%)</title><rect x="1152.9" y="341" width="37.1" height="15.0" fill="rgb(251,189,51)" rx="2" ry="2" />
<text  x="1155.89" y="351.5" >gen..</text>
</g>
<g >
<title>io_schedule (4,090 us, 0.03%)</title><rect x="1121.9" y="165" width="0.3" height="15.0" fill="rgb(237,149,35)" rx="2" ry="2" />
<text  x="1124.93" y="175.5" ></text>
</g>
<g >
<title>ext4_da_write_begin (412,793 us, 2.60%)</title><rect x="1122.2" y="357" width="30.7" height="15.0" fill="rgb(243,145,42)" rx="2" ry="2" />
<text  x="1125.24" y="367.5" >ex..</text>
</g>
<g >
<title>__wait_on_bit (4,969 us, 0.03%)</title><rect x="460.7" y="181" width="0.3" height="15.0" fill="rgb(236,119,34)" rx="2" ry="2" />
<text  x="463.66" y="191.5" ></text>
</g>
<g >
<title>jbd2_log_wait_commit (2,056,343 us, 12.94%)</title><rect x="10.0" y="389" width="152.7" height="15.0" fill="rgb(237,118,35)" rx="2" ry="2" />
<text  x="13.02" y="399.5" >jbd2_log_wait_commit</text>
</g>
<g >
<title>generic_perform_write (912,606 us, 5.74%)</title><rect x="1122.2" y="373" width="67.8" height="15.0" fill="rgb(240,189,38)" rx="2" ry="2" />
<text  x="1125.23" y="383.5" >generic..</text>
</g>
<g >
<title>filemap_fdatawrite_wbc (69,193 us, 0.44%)</title><rect x="458.5" y="405" width="5.1" height="15.0" fill="rgb(220,183,17)" rx="2" ry="2" />
<text  x="461.50" y="415.5" ></text>
</g>
<g >
<title>finish_task_switch.isra.0 (8,033 us, 0.05%)</title><rect x="1152.9" y="101" width="0.6" height="15.0" fill="rgb(238,177,36)" rx="2" ry="2" />
<text  x="1155.91" y="111.5" ></text>
</g>
<g >
<title>__wait_on_buffer (4,969 us, 0.03%)</title><rect x="460.7" y="213" width="0.3" height="15.0" fill="rgb(241,119,40)" rx="2" ry="2" />
<text  x="463.66" y="223.5" ></text>
</g>
<g >
<title>bit_wait_io (4,969 us, 0.03%)</title><rect x="460.7" y="165" width="0.3" height="15.0" fill="rgb(238,109,37)" rx="2" ry="2" />
<text  x="463.66" y="175.5" ></text>
</g>
<g >
<title>ext4_mb_regular_allocator (40,108 us, 0.25%)</title><rect x="460.7" y="293" width="2.9" height="15.0" fill="rgb(241,145,39)" rx="2" ry="2" />
<text  x="463.66" y="303.5" ></text>
</g>
<g >
<title>ext4_dirty_inode (499,708 us, 3.14%)</title><rect x="1152.9" y="309" width="37.1" height="15.0" fill="rgb(250,145,49)" rx="2" ry="2" />
<text  x="1155.89" y="319.5" >ext..</text>
</g>
<g >
<title>__wait_on_buffer (8,033 us, 0.05%)</title><rect x="1152.9" y="197" width="0.6" height="15.0" fill="rgb(241,119,40)" rx="2" ry="2" />
<text  x="1155.91" y="207.5" ></text>
</g>
<g >
<title>io_schedule (406,124 us, 2.56%)</title><rect x="1159.8" y="165" width="30.2" height="15.0" fill="rgb(237,149,35)" rx="2" ry="2" />
<text  x="1162.84" y="175.5" >io..</text>
</g>
<g >
<title>schedule (406,124 us, 2.56%)</title><rect x="1159.8" y="149" width="30.2" height="15.0" fill="rgb(237,164,35)" rx="2" ry="2" />
<text  x="1162.84" y="159.5" >sc..</text>
</g>
<g >
<title>wait_on_page_bit (3,983,162 us, 25.07%)</title><rect x="162.7" y="373" width="295.8" height="15.0" fill="rgb(236,83,34)" rx="2" ry="2" />
<text  x="165.72" y="383.5" >wait_on_page_bit</text>
</g>
<g >
<title>file_modified (5,162 us, 0.03%)</title><rect x="1121.8" y="373" width="0.4" height="15.0" fill="rgb(246,183,45)" rx="2" ry="2" />
<text  x="1124.85" y="383.5" ></text>
</g>
<g >
<title>__ext4_journal_get_write_access (406,124 us, 2.56%)</title><rect x="1159.8" y="261" width="30.2" height="15.0" fill="rgb(237,138,35)" rx="2" ry="2" />
<text  x="1162.84" y="271.5" >__..</text>
</g>
<g >
<title>__ext4_mark_inode_dirty (406,341 us, 2.56%)</title><rect x="1159.8" y="293" width="30.2" height="15.0" fill="rgb(242,138,41)" rx="2" ry="2" />
<text  x="1162.83" y="303.5" >__..</text>
</g>
<g >
<title>out_of_line_wait_on_bit (35,127 us, 0.22%)</title><rect x="461.0" y="213" width="2.6" height="15.0" fill="rgb(236,160,34)" rx="2" ry="2" />
<text  x="464.03" y="223.5" ></text>
</g>
<g >
<title>jbd2_cleanup_journal_tail (7,843 us, 0.05%)</title><rect x="1153.5" y="197" width="0.6" height="15.0" fill="rgb(233,118,31)" rx="2" ry="2" />
<text  x="1156.51" y="207.5" ></text>
</g>
<g >
<title>out_of_line_wait_on_bit (8,033 us, 0.05%)</title><rect x="1152.9" y="181" width="0.6" height="15.0" fill="rgb(236,160,34)" rx="2" ry="2" />
<text  x="1155.91" y="191.5" ></text>
</g>
<g >
<title>rwsem_down_read_slowpath (412,417 us, 2.60%)</title><rect x="1122.3" y="277" width="30.6" height="15.0" fill="rgb(240,130,39)" rx="2" ry="2" />
<text  x="1125.26" y="287.5" >rw..</text>
</g>
<g >
<title>wait_transaction_locked (77,200 us, 0.49%)</title><rect x="1154.1" y="229" width="5.7" height="15.0" fill="rgb(245,83,44)" rx="2" ry="2" />
<text  x="1157.09" y="239.5" ></text>
</g>
<g >
<title>jbd2_log_do_checkpoint (15,876 us, 0.10%)</title><rect x="1152.9" y="213" width="1.2" height="15.0" fill="rgb(238,118,36)" rx="2" ry="2" />
<text  x="1155.91" y="223.5" ></text>
</g>
<g >
<title>ext4_reserve_inode_write (4,090 us, 0.03%)</title><rect x="1121.9" y="277" width="0.3" height="15.0" fill="rgb(240,145,38)" rx="2" ry="2" />
<text  x="1124.93" y="287.5" ></text>
</g>
<g >
<title>io_schedule (4,969 us, 0.03%)</title><rect x="460.7" y="149" width="0.3" height="15.0" fill="rgb(237,149,35)" rx="2" ry="2" />
<text  x="463.66" y="159.5" ></text>
</g>
<g >
<title>vfs_write (917,784 us, 5.78%)</title><rect x="1121.8" y="437" width="68.2" height="15.0" fill="rgb(240,128,38)" rx="2" ry="2" />
<text  x="1124.85" y="447.5" >vfs_write</text>
</g>
<g >
<title>schedule (3,983,162 us, 25.07%)</title><rect x="162.7" y="325" width="295.8" height="15.0" fill="rgb(237,164,35)" rx="2" ry="2" />
<text  x="165.72" y="335.5" >schedule</text>
</g>
<g >
<title>do_syscall_64 (15,890,440 us, 100.00%)</title><rect x="10.0" y="501" width="1180.0" height="15.0" fill="rgb(232,189,30)" rx="2" ry="2" />
<text  x="13.00" y="511.5" >do_syscall_64</text>
</g>
<g >
<title>__filemap_fdatawait_range (3,983,162 us, 25.07%)</title><rect x="162.7" y="405" width="295.8" height="15.0" fill="rgb(247,135,46)" rx="2" ry="2" />
<text  x="165.72" y="415.5" >__filemap_fdatawait_range</text>
</g>
<g >
<title>schedule (27,020 us, 0.17%)</title><rect x="458.5" y="309" width="2.0" height="15.0" fill="rgb(237,164,35)" rx="2" ry="2" />
<text  x="461.50" y="319.5" ></text>
</g>
<g >
<title>__wait_on_bit (8,033 us, 0.05%)</title><rect x="1152.9" y="165" width="0.6" height="15.0" fill="rgb(236,119,34)" rx="2" ry="2" />
<text  x="1155.91" y="175.5" ></text>
</g>
<g >
<title>__mark_inode_dirty (499,708 us, 3.14%)</title><rect x="1152.9" y="325" width="37.1" height="15.0" fill="rgb(242,151,41)" rx="2" ry="2" />
<text  x="1155.89" y="335.5" >__m..</text>
</g>
<g >
<title>out_of_line_wait_on_bit (406,124 us, 2.56%)</title><rect x="1159.8" y="213" width="30.2" height="15.0" fill="rgb(236,160,34)" rx="2" ry="2" />
<text  x="1162.84" y="223.5" >ou..</text>
</g>
<g >
<title>ext4_mb_init_cache (4,969 us, 0.03%)</title><rect x="460.7" y="245" width="0.3" height="15.0" fill="rgb(245,145,44)" rx="2" ry="2" />
<text  x="463.66" y="255.5" ></text>
</g>
<g >
<title>io_schedule (35,127 us, 0.22%)</title><rect x="461.0" y="165" width="2.6" height="15.0" fill="rgb(237,149,35)" rx="2" ry="2" />
<text  x="464.03" y="175.5" ></text>
</g>
<g >
<title>x64_sys_call (15,890,289 us, 100.00%)</title><rect x="10.0" y="485" width="1180.0" height="15.0" fill="rgb(230,166,28)" rx="2" ry="2" />
<text  x="13.02" y="495.5" >x64_sys_call</text>
</g>
<g >
<title>io_schedule (8,033 us, 0.05%)</title><rect x="1152.9" y="133" width="0.6" height="15.0" fill="rgb(237,149,35)" rx="2" ry="2" />
<text  x="1155.91" y="143.5" ></text>
</g>
<g >
<title>schedule (4,969 us, 0.03%)</title><rect x="460.7" y="133" width="0.3" height="15.0" fill="rgb(237,164,35)" rx="2" ry="2" />
<text  x="463.66" y="143.5" ></text>
</g>
<g >
<title>do_get_write_access (406,124 us, 2.56%)</title><rect x="1159.8" y="229" width="30.2" height="15.0" fill="rgb(237,189,35)" rx="2" ry="2" />
<text  x="1162.84" y="239.5" >do..</text>
</g>
<g >
<title>jbd2_journal_update_sb_log_tail (7,843 us, 0.05%)</title><rect x="1153.5" y="165" width="0.6" height="15.0" fill="rgb(233,118,31)" rx="2" ry="2" />
<text  x="1156.51" y="175.5" ></text>
</g>
<g >
<title>out_of_line_wait_on_bit (4,090 us, 0.03%)</title><rect x="1121.9" y="213" width="0.3" height="15.0" fill="rgb(236,160,34)" rx="2" ry="2" />
<text  x="1124.93" y="223.5" ></text>
</g>
<g >
<title>down_write (27,086 us, 0.17%)</title><rect x="458.5" y="341" width="2.0" height="15.0" fill="rgb(240,189,38)" rx="2" ry="2" />
<text  x="461.50" y="351.5" ></text>
</g>
<g >
<title>__wait_on_bit (406,124 us, 2.56%)</title><rect x="1159.8" y="197" width="30.2" height="15.0" fill="rgb(236,119,34)" rx="2" ry="2" />
<text  x="1162.84" y="207.5" >__..</text>
</g>
<g >
<title>__cond_resched (1,437 us, 0.01%)</title><rect x="1153.5" y="133" width="0.1" height="15.0" fill="rgb(247,144,46)" rx="2" ry="2" />
<text  x="1156.51" y="143.5" ></text>
</g>
<g >
<title>ext4_mb_new_blocks (41,113 us, 0.26%)</title><rect x="460.6" y="309" width="3.0" height="15.0" fill="rgb(235,145,33)" rx="2" ry="2" />
<text  x="463.58" y="319.5" ></text>
</g>
<g >
<title>finish_task_switch.isra.0 (412,417 us, 2.60%)</title><rect x="1122.3" y="229" width="30.6" height="15.0" fill="rgb(238,177,36)" rx="2" ry="2" />
<text  x="1125.26" y="239.5" >fi..</text>
</g>
<g >
<title>schedule (35,127 us, 0.22%)</title><rect x="461.0" y="149" width="2.6" height="15.0" fill="rgb(237,164,35)" rx="2" ry="2" />
<text  x="464.03" y="159.5" ></text>
</g>
<g >
<title>schedule (8,863,782 us, 55.78%)</title><rect x="463.6" y="405" width="658.2" height="15.0" fill="rgb(237,164,35)" rx="2" ry="2" />
<text  x="466.64" y="415.5" >schedule</text>
</g>
<g >
<title>schedule_preempt_disabled (412,417 us, 2.60%)</title><rect x="1122.3" y="261" width="30.6" height="15.0" fill="rgb(252,164,52)" rx="2" ry="2" />
<text  x="1125.26" y="271.5" >sc..</text>
</g>
<g >
<title>add_transaction_credits (93,076 us, 0.59%)</title><rect x="1152.9" y="245" width="6.9" height="15.0" fill="rgb(233,156,31)" rx="2" ry="2" />
<text  x="1155.91" y="255.5" ></text>
</g>
<g >
<title>finish_task_switch.isra.0 (35,127 us, 0.22%)</title><rect x="461.0" y="133" width="2.6" height="15.0" fill="rgb(238,177,36)" rx="2" ry="2" />
<text  x="464.03" y="143.5" ></text>
</g>
<g >
<title>schedule (2,056,343 us, 12.94%)</title><rect x="10.0" y="373" width="152.7" height="15.0" fill="rgb(237,164,35)" rx="2" ry="2" />
<text  x="13.02" y="383.5" >schedule</text>
</g>
<g >
<title>rwsem_down_write_slowpath (27,020 us, 0.17%)</title><rect x="458.5" y="325" width="2.0" height="15.0" fill="rgb(240,130,39)" rx="2" ry="2" />
<text  x="461.50" y="335.5" ></text>
</g>
<g >
<title>finish_task_switch.isra.0 (6,406 us, 0.04%)</title><rect x="1153.6" y="37" width="0.5" height="15.0" fill="rgb(238,177,36)" rx="2" ry="2" />
<text  x="1156.62" y="47.5" ></text>
</g>
<g >
<title>__wait_on_bit (6,406 us, 0.04%)</title><rect x="1153.6" y="101" width="0.5" height="15.0" fill="rgb(236,119,34)" rx="2" ry="2" />
<text  x="1156.62" y="111.5" ></text>
</g>
<g >
<title>do_futex (8,863,782 us, 55.78%)</title><rect x="463.6" y="453" width="658.2" height="15.0" fill="rgb(247,189,46)" rx="2" ry="2" />
<text  x="466.64" y="463.5" >do_futex</text>
</g>
<g >
<title>file_update_time (5,162 us, 0.03%)</title><rect x="1121.8" y="357" width="0.4" height="15.0" fill="rgb(236,183,34)" rx="2" ry="2" />
<text  x="1124.85" y="367.5" ></text>
</g>
<g >
<title>schedule (77,200 us, 0.49%)</title><rect x="1154.1" y="213" width="5.7" height="15.0" fill="rgb(237,164,35)" rx="2" ry="2" />
<text  x="1157.09" y="223.5" ></text>
</g>
<g >
<title>__ext4_mark_inode_dirty (4,090 us, 0.03%)</title><rect x="1121.9" y="293" width="0.3" height="15.0" fill="rgb(242,138,41)" rx="2" ry="2" />
<text  x="1124.93" y="303.5" ></text>
</g>
<g >
<title>stalls.o (15,890,502 us, 100.00%)</title><rect x="10.0" y="533" width="1180.0" height="15.0" fill="rgb(246,156,45)" rx="2" ry="2" />
<text  x="13.00" y="543.5" >stalls.o</text>
</g>
<g >
<title>out_of_line_wait_on_bit (6,406 us, 0.04%)</title><rect x="1153.6" y="117" width="0.5" height="15.0" fill="rgb(236,160,34)" rx="2" ry="2" />
<text  x="1156.62" y="127.5" ></text>
</g>
<g >
<title>do_writepages (69,193 us, 0.44%)</title><rect x="458.5" y="389" width="5.1" height="15.0" fill="rgb(239,189,37)" rx="2" ry="2" />
<text  x="461.50" y="399.5" ></text>
</g>
<g >
<title>start_this_handle (93,076 us, 0.59%)</title><rect x="1152.9" y="261" width="6.9" height="15.0" fill="rgb(240,156,39)" rx="2" ry="2" />
<text  x="1155.91" y="271.5" ></text>
</g>
<g >
<title>ext4_da_map_blocks.constprop.0 (412,457 us, 2.60%)</title><rect x="1122.3" y="309" width="30.6" height="15.0" fill="rgb(236,145,34)" rx="2" ry="2" />
<text  x="1125.26" y="319.5" >ex..</text>
</g>
<g >
<title>__wait_on_buffer (6,406 us, 0.04%)</title><rect x="1153.6" y="133" width="0.5" height="15.0" fill="rgb(241,119,40)" rx="2" ry="2" />
<text  x="1156.62" y="143.5" ></text>
</g>
<g >
<title>__jbd2_update_log_tail (7,843 us, 0.05%)</title><rect x="1153.5" y="181" width="0.6" height="15.0" fill="rgb(233,122,31)" rx="2" ry="2" />
<text  x="1156.51" y="191.5" ></text>
</g>
<g >
<title>finish_task_switch.isra.0 (27,020 us, 0.17%)</title><rect x="458.5" y="293" width="2.0" height="15.0" fill="rgb(238,177,36)" rx="2" ry="2" />
<text  x="461.50" y="303.5" ></text>
</g>
<g >
<title>schedule (8,033 us, 0.05%)</title><rect x="1152.9" y="117" width="0.6" height="15.0" fill="rgb(237,164,35)" rx="2" ry="2" />
<text  x="1155.91" y="127.5" ></text>
</g>
<g >
<title>__ext4_journal_get_write_access (4,090 us, 0.03%)</title><rect x="1121.9" y="261" width="0.3" height="15.0" fill="rgb(237,138,35)" rx="2" ry="2" />
<text  x="1124.93" y="271.5" ></text>
</g>
<g >
<title>futex_wait_queue_me (8,863,782 us, 55.78%)</title><rect x="463.6" y="421" width="658.2" height="15.0" fill="rgb(234,152,32)" rx="2" ry="2" />
<text  x="466.64" y="431.5" >futex_wait_queue_me</text>
</g>
<g >
<title>finish_task_switch.isra.0 (1,437 us, 0.01%)</title><rect x="1153.5" y="117" width="0.1" height="15.0" fill="rgb(238,177,36)" rx="2" ry="2" />
<text  x="1156.51" y="127.5" ></text>
</g>
<g >
<title>out_of_line_wait_on_bit (4,969 us, 0.03%)</title><rect x="460.7" y="197" width="0.3" height="15.0" fill="rgb(236,160,34)" rx="2" ry="2" />
<text  x="463.66" y="207.5" ></text>
</g>
<g >
<title>__x64_sys_futex (8,863,782 us, 55.78%)</title><rect x="463.6" y="469" width="658.2" height="15.0" fill="rgb(247,154,46)" rx="2" ry="2" />
<text  x="466.64" y="479.5" >__x64_sys_futex</text>
</g>
<g >
<title>finish_task_switch.isra.0 (4,090 us, 0.03%)</title><rect x="1121.9" y="133" width="0.3" height="15.0" fill="rgb(238,177,36)" rx="2" ry="2" />
<text  x="1124.93" y="143.5" ></text>
</g>
<g >
<title>__wait_on_buffer (35,127 us, 0.22%)</title><rect x="461.0" y="229" width="2.6" height="15.0" fill="rgb(241,119,40)" rx="2" ry="2" />
<text  x="464.03" y="239.5" ></text>
</g>
<g >
<title>__wait_on_bit (35,127 us, 0.22%)</title><rect x="461.0" y="197" width="2.6" height="15.0" fill="rgb(236,119,34)" rx="2" ry="2" />
<text  x="464.03" y="207.5" ></text>
</g>
<g >
<title>jbd2__journal_start (93,116 us, 0.59%)</title><rect x="1152.9" y="277" width="6.9" height="15.0" fill="rgb(239,118,37)" rx="2" ry="2" />
<text  x="1155.91" y="287.5" ></text>
</g>
<g >
<title>__x64_sys_fsync (6,108,709 us, 38.44%)</title><rect x="10.0" y="469" width="453.6" height="15.0" fill="rgb(238,154,36)" rx="2" ry="2" />
<text  x="13.02" y="479.5" >__x64_sys_fsync</text>
</g>
<g >
<title>ext4_map_blocks (42,095 us, 0.26%)</title><rect x="460.5" y="341" width="3.1" height="15.0" fill="rgb(235,145,33)" rx="2" ry="2" />
<text  x="463.51" y="351.5" ></text>
</g>
<g >
<title>futex_wait (8,863,782 us, 55.78%)</title><rect x="463.6" y="437" width="658.2" height="15.0" fill="rgb(237,152,35)" rx="2" ry="2" />
<text  x="466.64" y="447.5" >futex_wait</text>
</g>
<g >
<title>ext4_wait_block_bitmap (35,127 us, 0.22%)</title><rect x="461.0" y="245" width="2.6" height="15.0" fill="rgb(240,145,39)" rx="2" ry="2" />
<text  x="464.03" y="255.5" ></text>
</g>
<g >
<title>io_schedule (3,983,162 us, 25.07%)</title><rect x="162.7" y="341" width="295.8" height="15.0" fill="rgb(237,149,35)" rx="2" ry="2" />
<text  x="165.72" y="351.5" >io_schedule</text>
</g>
<g >
<title>ksys_write (917,791 us, 5.78%)</title><rect x="1121.8" y="453" width="68.2" height="15.0" fill="rgb(240,145,38)" rx="2" ry="2" />
<text  x="1124.85" y="463.5" >ksys_wr..</text>
</g>
<g >
<title>ext4_block_write_begin (412,729 us, 2.60%)</title><rect x="1122.2" y="341" width="30.7" height="15.0" fill="rgb(243,145,42)" rx="2" ry="2" />
<text  x="1125.24" y="351.5" >ex..</text>
</g>
<g >
<title>wait_on_page_writeback (3,983,162 us, 25.07%)</title><rect x="162.7" y="389" width="295.8" height="15.0" fill="rgb(242,83,40)" rx="2" ry="2" />
<text  x="165.72" y="399.5" >wait_on_page_writeback</text>
</g>
<g >
<title>ext4_dirty_inode (5,162 us, 0.03%)</title><rect x="1121.8" y="309" width="0.4" height="15.0" fill="rgb(250,145,49)" rx="2" ry="2" />
<text  x="1124.85" y="319.5" ></text>
</g>
<g >
<title>ext4_da_write_end (499,708 us, 3.14%)</title><rect x="1152.9" y="357" width="37.1" height="15.0" fill="rgb(251,145,51)" rx="2" ry="2" />
<text  x="1155.89" y="367.5" >ext..</text>
</g>
<g >
<title>wait_on_page_bit_common (3,983,162 us, 25.07%)</title><rect x="162.7" y="357" width="295.8" height="15.0" fill="rgb(253,83,53)" rx="2" ry="2" />
<text  x="165.72" y="367.5" >wait_on_page_bit_common</text>
</g>
<g >
<title>ext4_reserve_inode_write (406,160 us, 2.56%)</title><rect x="1159.8" y="277" width="30.2" height="15.0" fill="rgb(240,145,38)" rx="2" ry="2" />
<text  x="1162.84" y="287.5" >ex..</text>
</g>
<g >
<title>jbd2_complete_transaction (2,056,343 us, 12.94%)</title><rect x="10.0" y="405" width="152.7" height="15.0" fill="rgb(247,118,46)" rx="2" ry="2" />
<text  x="13.02" y="415.5" >jbd2_complete_trans..</text>
</g>
<g >
<title>bit_wait_io (406,124 us, 2.56%)</title><rect x="1159.8" y="181" width="30.2" height="15.0" fill="rgb(238,109,37)" rx="2" ry="2" />
<text  x="1162.84" y="191.5" >bi..</text>
</g>
<g >
<title>all (15,890,502 us, 100%)</title><rect x="10.0" y="549" width="1180.0" height="15.0" fill="rgb(255,230,55)" rx="2" ry="2" />
<text  x="13.00" y="559.5" ></text>
</g>
<g >
<title>__ext4_journal_start_sb (93,367 us, 0.59%)</title><rect x="1152.9" y="293" width="6.9" height="15.0" fill="rgb(227,138,25)" rx="2" ry="2" />
<text  x="1155.89" y="303.5" ></text>
</g>
<g >
<title>finish_task_switch.isra.0 (3,983,162 us, 25.07%)</title><rect x="162.7" y="309" width="295.8" height="15.0" fill="rgb(238,177,36)" rx="2" ry="2" />
<text  x="165.72" y="319.5" >finish_task_switch.isra.0</text>
</g>
<g >
<title>ext4_fc_commit (2,056,343 us, 12.94%)</title><rect x="10.0" y="421" width="152.7" height="15.0" fill="rgb(237,145,35)" rx="2" ry="2" />
<text  x="13.02" y="431.5" >ext4_fc_commit</text>
</g>
<g >
<title>bit_wait_io (4,090 us, 0.03%)</title><rect x="1121.9" y="181" width="0.3" height="15.0" fill="rgb(238,109,37)" rx="2" ry="2" />
<text  x="1124.93" y="191.5" ></text>
</g>
<g >
<title>ext4_mb_load_buddy_gfp (4,969 us, 0.03%)</title><rect x="460.7" y="261" width="0.3" height="15.0" fill="rgb(243,145,42)" rx="2" ry="2" />
<text  x="463.66" y="271.5" ></text>
</g>
<g >
<title>__x64_sys_write (917,791 us, 5.78%)</title><rect x="1121.8" y="469" width="68.2" height="15.0" fill="rgb(240,154,38)" rx="2" ry="2" />
<text  x="1124.85" y="479.5" >__x64_s..</text>
</g>
<g >
<title>do_get_write_access (4,090 us, 0.03%)</title><rect x="1121.9" y="229" width="0.3" height="15.0" fill="rgb(237,189,35)" rx="2" ry="2" />
<text  x="1124.93" y="239.5" ></text>
</g>
<g >
<title>down_read (412,457 us, 2.60%)</title><rect x="1122.3" y="293" width="30.6" height="15.0" fill="rgb(241,189,40)" rx="2" ry="2" />
<text  x="1125.26" y="303.5" >do..</text>
</g>
<g >
<title>ext4_mb_load_buddy_gfp (35,127 us, 0.22%)</title><rect x="461.0" y="277" width="2.6" height="15.0" fill="rgb(243,145,42)" rx="2" ry="2" />
<text  x="464.03" y="287.5" ></text>
</g>
<g >
<title>io_schedule (6,406 us, 0.04%)</title><rect x="1153.6" y="69" width="0.5" height="15.0" fill="rgb(237,149,35)" rx="2" ry="2" />
<text  x="1156.62" y="79.5" ></text>
</g>
<g >
<title>schedule (412,417 us, 2.60%)</title><rect x="1122.3" y="245" width="30.6" height="15.0" fill="rgb(237,164,35)" rx="2" ry="2" />
<text  x="1125.26" y="255.5" >sc..</text>
</g>
<g >
<title>finish_task_switch.isra.0 (77,200 us, 0.49%)</title><rect x="1154.1" y="197" width="5.7" height="15.0" fill="rgb(238,177,36)" rx="2" ry="2" />
<text  x="1157.09" y="207.5" ></text>
</g>
<g >
<title>jbd2_journal_get_write_access (406,124 us, 2.56%)</title><rect x="1159.8" y="245" width="30.2" height="15.0" fill="rgb(237,118,35)" rx="2" ry="2" />
<text  x="1162.84" y="255.5" >jb..</text>
</g>
<g >
<title>schedule (6,406 us, 0.04%)</title><rect x="1153.6" y="53" width="0.5" height="15.0" fill="rgb(237,164,35)" rx="2" ry="2" />
<text  x="1156.62" y="63.5" ></text>
</g>
<g >
<title>schedule (4,090 us, 0.03%)</title><rect x="1121.9" y="149" width="0.3" height="15.0" fill="rgb(237,164,35)" rx="2" ry="2" />
<text  x="1124.93" y="159.5" ></text>
</g>
<g >
<title>finish_task_switch.isra.0 (406,124 us, 2.56%)</title><rect x="1159.8" y="133" width="30.2" height="15.0" fill="rgb(238,177,36)" rx="2" ry="2" />
<text  x="1162.84" y="143.5" >fi..</text>
</g>
<g >
<title>jbd2_journal_get_write_access (4,090 us, 0.03%)</title><rect x="1121.9" y="245" width="0.3" height="15.0" fill="rgb(237,118,35)" rx="2" ry="2" />
<text  x="1124.93" y="255.5" ></text>
</g>
<g >
<title>ext4_da_get_block_prep (412,457 us, 2.60%)</title><rect x="1122.3" y="325" width="30.6" height="15.0" fill="rgb(245,145,44)" rx="2" ry="2" />
<text  x="1125.26" y="335.5" >ex..</text>
</g>
<g >
<title>ext4_sync_file (6,108,709 us, 38.44%)</title><rect x="10.0" y="437" width="453.6" height="15.0" fill="rgb(237,145,35)" rx="2" ry="2" />
<text  x="13.02" y="447.5" >ext4_sync_file</text>
</g>
<g >
<title>ext4_mb_find_by_goal (4,969 us, 0.03%)</title><rect x="460.7" y="277" width="0.3" height="15.0" fill="rgb(229,145,26)" rx="2" ry="2" />
<text  x="463.66" y="287.5" ></text>
</g>
<g >
<title>file_write_and_wait_range (4,052,355 us, 25.50%)</title><rect x="162.7" y="421" width="300.9" height="15.0" fill="rgb(247,183,46)" rx="2" ry="2" />
<text  x="165.72" y="431.5" >file_write_and_wait_range</text>
</g>
<g >
<title>bit_wait_io (8,033 us, 0.05%)</title><rect x="1152.9" y="149" width="0.6" height="15.0" fill="rgb(238,109,37)" rx="2" ry="2" />
<text  x="1155.91" y="159.5" ></text>
</g>
<g >
<title>jbd2_write_superblock (7,843 us, 0.05%)</title><rect x="1153.5" y="149" width="0.6" height="15.0" fill="rgb(240,118,39)" rx="2" ry="2" />
<text  x="1156.51" y="159.5" ></text>
</g>
<g >
<title>bit_wait_io (35,127 us, 0.22%)</title><rect x="461.0" y="181" width="2.6" height="15.0" fill="rgb(238,109,37)" rx="2" ry="2" />
<text  x="464.03" y="191.5" ></text>
</g>
<g >
<title>ext4_mb_init_cache (35,127 us, 0.22%)</title><rect x="461.0" y="261" width="2.6" height="15.0" fill="rgb(245,145,44)" rx="2" ry="2" />
<text  x="464.03" y="271.5" ></text>
</g>
<g >
<title>__mark_inode_dirty (5,162 us, 0.03%)</title><rect x="1121.8" y="325" width="0.4" height="15.0" fill="rgb(242,151,41)" rx="2" ry="2" />
<text  x="1124.85" y="335.5" ></text>
</g>
<g >
<title>__wait_on_bit (4,090 us, 0.03%)</title><rect x="1121.9" y="197" width="0.3" height="15.0" fill="rgb(236,119,34)" rx="2" ry="2" />
<text  x="1124.93" y="207.5" ></text>
</g>
<g >
<title>ext4_ext_map_blocks (41,123 us, 0.26%)</title><rect x="460.6" y="325" width="3.0" height="15.0" fill="rgb(235,145,33)" rx="2" ry="2" />
<text  x="463.58" y="335.5" ></text>
</g>
<g >
<title>ext4_file_write_iter (917,784 us, 5.78%)</title><rect x="1121.8" y="405" width="68.2" height="15.0" fill="rgb(240,145,38)" rx="2" ry="2" />
<text  x="1124.85" y="415.5" >ext4_fi..</text>
</g>
<g >
<title>finish_task_switch.isra.0 (4,969 us, 0.03%)</title><rect x="460.7" y="117" width="0.3" height="15.0" fill="rgb(238,177,36)" rx="2" ry="2" />
<text  x="463.66" y="127.5" ></text>
</g>
<g >
<title>finish_task_switch.isra.0 (2,056,343 us, 12.94%)</title><rect x="10.0" y="357" width="152.7" height="15.0" fill="rgb(238,177,36)" rx="2" ry="2" />
<text  x="13.02" y="367.5" >finish_task_switch...</text>
</g>
<g >
<title>vfs_fsync_range (6,108,709 us, 38.44%)</title><rect x="10.0" y="453" width="453.6" height="15.0" fill="rgb(247,128,46)" rx="2" ry="2" />
<text  x="13.02" y="463.5" >vfs_fsync_range</text>
</g>
<g >
<title>new_sync_write (917,784 us, 5.78%)</title><rect x="1121.8" y="421" width="68.2" height="15.0" fill="rgb(240,184,38)" rx="2" ry="2" />
<text  x="1124.85" y="431.5" >new_syn..</text>
</g>
<g >
<title>finish_task_switch.isra.0 (8,863,782 us, 55.78%)</title><rect x="463.6" y="389" width="658.2" height="15.0" fill="rgb(238,177,36)" rx="2" ry="2" />
<text  x="466.64" y="399.5" >finish_task_switch.isra.0</text>
</g>
<g >
<title>mpage_map_and_submit_extent (69,187 us, 0.44%)</title><rect x="458.5" y="357" width="5.1" height="15.0" fill="rgb(241,144,39)" rx="2" ry="2" />
<text  x="461.50" y="367.5" ></text>
</g>
<g >
<title>entry_SYSCALL_64_after_hwframe (15,890,440 us, 100.00%)</title><rect x="10.0" y="517" width="1180.0" height="15.0" fill="rgb(241,196,40)" rx="2" ry="2" />
<text  x="13.00" y="527.5" >entry_SYSCALL_64_after_hwframe</text>
</g>
<g >
<title>ext4_wait_block_bitmap (4,969 us, 0.03%)</title><rect x="460.7" y="229" width="0.3" height="15.0" fill="rgb(240,145,39)" rx="2" ry="2" />
<text  x="463.66" y="239.5" ></text>
</g>
</g>
</svg>
